%TF.GenerationSoftware,KiCad,Pcbnew,4.0.7-e2-6376~58~ubuntu16.04.1*%
%TF.CreationDate,2018-08-15T08:26:31-07:00*%
%TF.ProjectId,psu,7073752E6B696361645F706362000000,rev?*%
%TF.FileFunction,Soldermask,Top*%
%FSLAX46Y46*%
G04 Gerber Fmt 4.6, Leading zero omitted, Abs format (unit mm)*
G04 Created by KiCad (PCBNEW 4.0.7-e2-6376~58~ubuntu16.04.1) date Wed Aug 15 08:26:31 2018*
%MOMM*%
%LPD*%
G01*
G04 APERTURE LIST*
%ADD10C,0.100000*%
%ADD11C,3.200000*%
%ADD12C,2.000000*%
%ADD13R,2.200000X2.200000*%
%ADD14O,2.200000X2.200000*%
%ADD15R,1.800000X1.800000*%
%ADD16C,1.800000*%
%ADD17O,2.500000X4.000000*%
%ADD18R,2.500000X4.000000*%
%ADD19C,1.600000*%
%ADD20O,1.600000X1.600000*%
%ADD21C,1.900000*%
%ADD22R,1.900000X1.900000*%
%ADD23C,5.600000*%
%ADD24O,4.000000X2.500000*%
%ADD25R,4.000000X2.500000*%
%ADD26R,4.000000X4.000000*%
%ADD27C,4.000000*%
%ADD28R,1.600000X1.600000*%
%ADD29R,1.750000X1.750000*%
%ADD30C,1.750000*%
%ADD31C,2.400000*%
%ADD32O,2.400000X2.400000*%
%ADD33R,2.100000X2.100000*%
%ADD34C,2.100000*%
%ADD35C,2.500000*%
%ADD36C,3.000000*%
G04 APERTURE END LIST*
D10*
D11*
X118400000Y-56950000D03*
X198400000Y-26950000D03*
X198400000Y-156950000D03*
X48400000Y-26950000D03*
D12*
X128300000Y-147000000D03*
X118300000Y-147000000D03*
X112300000Y-135300000D03*
X122300000Y-135300000D03*
D13*
X114350000Y-111800000D03*
D14*
X124510000Y-111800000D03*
D15*
X67600000Y-106500000D03*
D16*
X67600000Y-103960000D03*
D17*
X100525000Y-153800000D03*
D18*
X81475000Y-153800000D03*
D17*
X87825000Y-153800000D03*
X94175000Y-153800000D03*
X74475000Y-153800000D03*
D18*
X55425000Y-153800000D03*
D17*
X61775000Y-153800000D03*
X68125000Y-153800000D03*
D19*
X180950000Y-88600000D03*
D20*
X180950000Y-98760000D03*
D19*
X66000000Y-90550000D03*
D20*
X66000000Y-100710000D03*
D12*
X121450000Y-87900000D03*
X118850000Y-97900000D03*
D21*
X105075000Y-61275000D03*
X86975000Y-61275000D03*
X105075000Y-79375000D03*
D22*
X93675000Y-79375000D03*
D23*
X96025000Y-70325000D03*
D24*
X51550000Y-96725000D03*
D25*
X51550000Y-64975000D03*
D24*
X51550000Y-90375000D03*
X51550000Y-71325000D03*
X51550000Y-77675000D03*
X51550000Y-84025000D03*
D11*
X48400000Y-156950000D03*
D19*
X148000000Y-133700000D03*
X143000000Y-133700000D03*
X165850000Y-146950000D03*
X160850000Y-146950000D03*
D12*
X164100000Y-50550000D03*
X156600000Y-50550000D03*
X130950000Y-66050000D03*
X130950000Y-73550000D03*
D19*
X192100000Y-54600000D03*
X192100000Y-59600000D03*
D26*
X141600000Y-30000000D03*
D27*
X141600000Y-40000000D03*
D26*
X178850000Y-30050000D03*
D27*
X178850000Y-40050000D03*
D12*
X186150000Y-78900000D03*
X186150000Y-68900000D03*
X186150000Y-55100000D03*
X186150000Y-65100000D03*
D19*
X196700000Y-59600000D03*
X196700000Y-54600000D03*
X196700000Y-107050000D03*
X196700000Y-102050000D03*
X192100000Y-102050000D03*
X192100000Y-107050000D03*
D26*
X156200000Y-100100000D03*
D27*
X156200000Y-110100000D03*
D26*
X185050000Y-125250000D03*
D27*
X185050000Y-135250000D03*
D12*
X186150000Y-92700000D03*
X186150000Y-82700000D03*
X186150000Y-96550000D03*
X186150000Y-106550000D03*
X170700000Y-61250000D03*
X170700000Y-68750000D03*
X139350000Y-90250000D03*
X131850000Y-90250000D03*
D19*
X80950000Y-146950000D03*
X85950000Y-146950000D03*
X98800000Y-133700000D03*
X103800000Y-133700000D03*
D12*
X115850000Y-73550000D03*
X115850000Y-66050000D03*
X90200000Y-50550000D03*
X82700000Y-50550000D03*
D19*
X54700000Y-54600000D03*
X54700000Y-59600000D03*
D26*
X67950000Y-30050000D03*
D27*
X67950000Y-40050000D03*
D26*
X105200000Y-30050000D03*
D27*
X105200000Y-40050000D03*
D12*
X60650000Y-78900000D03*
X60650000Y-68900000D03*
X60650000Y-55100000D03*
X60650000Y-65100000D03*
D19*
X50100000Y-59600000D03*
X50100000Y-54600000D03*
X50100000Y-107050000D03*
X50100000Y-102050000D03*
X54700000Y-102050000D03*
X54700000Y-107050000D03*
D26*
X90600000Y-100100000D03*
D27*
X90600000Y-110100000D03*
D26*
X61750000Y-125250000D03*
D27*
X61750000Y-135250000D03*
D12*
X60650000Y-92700000D03*
X60650000Y-82700000D03*
X60650000Y-96550000D03*
X60650000Y-106550000D03*
X114950000Y-90250000D03*
X107450000Y-90250000D03*
X76100000Y-68750000D03*
X76100000Y-61250000D03*
D28*
X114900000Y-107100000D03*
D19*
X116900000Y-107100000D03*
D13*
X114350000Y-115300000D03*
D14*
X124510000Y-115300000D03*
D24*
X195250000Y-64975000D03*
D25*
X195250000Y-96725000D03*
D24*
X195250000Y-71325000D03*
X195250000Y-90375000D03*
X195250000Y-84025000D03*
X195250000Y-77675000D03*
D17*
X165325000Y-153800000D03*
D18*
X146275000Y-153800000D03*
D17*
X152625000Y-153800000D03*
X158975000Y-153800000D03*
X191375000Y-153800000D03*
D18*
X172325000Y-153800000D03*
D17*
X178675000Y-153800000D03*
X185025000Y-153800000D03*
D29*
X179750000Y-102950000D03*
D30*
X179750000Y-105450000D03*
D19*
X200700000Y-49700000D03*
D20*
X200700000Y-59860000D03*
D31*
X128400000Y-20000000D03*
D32*
X128400000Y-50480000D03*
D31*
X159800000Y-20000000D03*
D32*
X159800000Y-50480000D03*
D31*
X197900000Y-115050000D03*
D32*
X197900000Y-145530000D03*
D31*
X168650000Y-89450000D03*
D32*
X168650000Y-119930000D03*
D19*
X200700000Y-101750000D03*
D20*
X200700000Y-111910000D03*
D19*
X46100000Y-49700000D03*
D20*
X46100000Y-59860000D03*
D31*
X87000000Y-20000000D03*
D32*
X87000000Y-50480000D03*
D31*
X118400000Y-20000000D03*
D32*
X118400000Y-50480000D03*
D31*
X78150000Y-89450000D03*
D32*
X78150000Y-119930000D03*
D31*
X48900000Y-115050000D03*
D32*
X48900000Y-145530000D03*
D19*
X46100000Y-101750000D03*
D20*
X46100000Y-111910000D03*
D19*
X111050000Y-113600000D03*
D20*
X111050000Y-98360000D03*
D31*
X108250000Y-118150000D03*
D32*
X138730000Y-118150000D03*
D31*
X108250000Y-128100000D03*
D32*
X138730000Y-128100000D03*
D31*
X108250000Y-138150000D03*
D32*
X138730000Y-138150000D03*
D21*
X141725000Y-61275000D03*
X141725000Y-79375000D03*
X159825000Y-61275000D03*
D22*
X159825000Y-72675000D03*
D23*
X150775000Y-70325000D03*
D33*
X126000000Y-99250000D03*
D34*
X126000000Y-94150000D03*
X126000000Y-83950000D03*
X126000000Y-89050000D03*
D35*
X113900000Y-131050000D03*
D36*
X126100000Y-131050000D03*
D35*
X113900000Y-119050000D03*
D36*
X111950000Y-125000000D03*
D17*
X139275000Y-153800000D03*
D18*
X107525000Y-153800000D03*
D17*
X132925000Y-153800000D03*
X113875000Y-153800000D03*
X120225000Y-153800000D03*
X126575000Y-153800000D03*
M02*
