%TF.GenerationSoftware,KiCad,Pcbnew,4.0.7-e2-6376~58~ubuntu16.04.1*%
%TF.CreationDate,2018-08-15T08:26:31-07:00*%
%TF.ProjectId,psu,7073752E6B696361645F706362000000,rev?*%
%TF.FileFunction,Legend,Bot*%
%FSLAX46Y46*%
G04 Gerber Fmt 4.6, Leading zero omitted, Abs format (unit mm)*
G04 Created by KiCad (PCBNEW 4.0.7-e2-6376~58~ubuntu16.04.1) date Wed Aug 15 08:26:31 2018*
%MOMM*%
%LPD*%
G01*
G04 APERTURE LIST*
%ADD10C,0.100000*%
%ADD11C,0.120000*%
%ADD12C,0.150000*%
G04 APERTURE END LIST*
D10*
D11*
X123840000Y-22680000D02*
X132960000Y-22680000D01*
X132960000Y-22680000D02*
X132960000Y-47800000D01*
X132960000Y-47800000D02*
X123840000Y-47800000D01*
X123840000Y-47800000D02*
X123840000Y-22680000D01*
X128400000Y-21380000D02*
X128400000Y-22680000D01*
X128400000Y-49100000D02*
X128400000Y-47800000D01*
X155240000Y-22680000D02*
X164360000Y-22680000D01*
X164360000Y-22680000D02*
X164360000Y-47800000D01*
X164360000Y-47800000D02*
X155240000Y-47800000D01*
X155240000Y-47800000D02*
X155240000Y-22680000D01*
X159800000Y-21380000D02*
X159800000Y-22680000D01*
X159800000Y-49100000D02*
X159800000Y-47800000D01*
X193340000Y-117730000D02*
X202460000Y-117730000D01*
X202460000Y-117730000D02*
X202460000Y-142850000D01*
X202460000Y-142850000D02*
X193340000Y-142850000D01*
X193340000Y-142850000D02*
X193340000Y-117730000D01*
X197900000Y-116430000D02*
X197900000Y-117730000D01*
X197900000Y-144150000D02*
X197900000Y-142850000D01*
X164090000Y-92130000D02*
X173210000Y-92130000D01*
X173210000Y-92130000D02*
X173210000Y-117250000D01*
X173210000Y-117250000D02*
X164090000Y-117250000D01*
X164090000Y-117250000D02*
X164090000Y-92130000D01*
X168650000Y-90830000D02*
X168650000Y-92130000D01*
X168650000Y-118550000D02*
X168650000Y-117250000D01*
X82440000Y-22680000D02*
X91560000Y-22680000D01*
X91560000Y-22680000D02*
X91560000Y-47800000D01*
X91560000Y-47800000D02*
X82440000Y-47800000D01*
X82440000Y-47800000D02*
X82440000Y-22680000D01*
X87000000Y-21380000D02*
X87000000Y-22680000D01*
X87000000Y-49100000D02*
X87000000Y-47800000D01*
X113840000Y-22680000D02*
X122960000Y-22680000D01*
X122960000Y-22680000D02*
X122960000Y-47800000D01*
X122960000Y-47800000D02*
X113840000Y-47800000D01*
X113840000Y-47800000D02*
X113840000Y-22680000D01*
X118400000Y-21380000D02*
X118400000Y-22680000D01*
X118400000Y-49100000D02*
X118400000Y-47800000D01*
X73590000Y-92130000D02*
X82710000Y-92130000D01*
X82710000Y-92130000D02*
X82710000Y-117250000D01*
X82710000Y-117250000D02*
X73590000Y-117250000D01*
X73590000Y-117250000D02*
X73590000Y-92130000D01*
X78150000Y-90830000D02*
X78150000Y-92130000D01*
X78150000Y-118550000D02*
X78150000Y-117250000D01*
X44340000Y-117730000D02*
X53460000Y-117730000D01*
X53460000Y-117730000D02*
X53460000Y-142850000D01*
X53460000Y-142850000D02*
X44340000Y-142850000D01*
X44340000Y-142850000D02*
X44340000Y-117730000D01*
X48900000Y-116430000D02*
X48900000Y-117730000D01*
X48900000Y-144150000D02*
X48900000Y-142850000D01*
X110930000Y-122710000D02*
X110930000Y-113590000D01*
X110930000Y-113590000D02*
X136050000Y-113590000D01*
X136050000Y-113590000D02*
X136050000Y-122710000D01*
X136050000Y-122710000D02*
X110930000Y-122710000D01*
X109630000Y-118150000D02*
X110930000Y-118150000D01*
X137350000Y-118150000D02*
X136050000Y-118150000D01*
X110930000Y-132660000D02*
X110930000Y-123540000D01*
X110930000Y-123540000D02*
X136050000Y-123540000D01*
X136050000Y-123540000D02*
X136050000Y-132660000D01*
X136050000Y-132660000D02*
X110930000Y-132660000D01*
X109630000Y-128100000D02*
X110930000Y-128100000D01*
X137350000Y-128100000D02*
X136050000Y-128100000D01*
X110930000Y-142710000D02*
X110930000Y-133590000D01*
X110930000Y-133590000D02*
X136050000Y-133590000D01*
X136050000Y-133590000D02*
X136050000Y-142710000D01*
X136050000Y-142710000D02*
X110930000Y-142710000D01*
X109630000Y-138150000D02*
X110930000Y-138150000D01*
X137350000Y-138150000D02*
X136050000Y-138150000D01*
D12*
X128566666Y-35302381D02*
X128900000Y-34826190D01*
X129138095Y-35302381D02*
X129138095Y-34302381D01*
X128757142Y-34302381D01*
X128661904Y-34350000D01*
X128614285Y-34397619D01*
X128566666Y-34492857D01*
X128566666Y-34635714D01*
X128614285Y-34730952D01*
X128661904Y-34778571D01*
X128757142Y-34826190D01*
X129138095Y-34826190D01*
X127709523Y-34635714D02*
X127709523Y-35302381D01*
X127947619Y-34254762D02*
X128185714Y-34969048D01*
X127566666Y-34969048D01*
X159966666Y-35352381D02*
X160300000Y-34876190D01*
X160538095Y-35352381D02*
X160538095Y-34352381D01*
X160157142Y-34352381D01*
X160061904Y-34400000D01*
X160014285Y-34447619D01*
X159966666Y-34542857D01*
X159966666Y-34685714D01*
X160014285Y-34780952D01*
X160061904Y-34828571D01*
X160157142Y-34876190D01*
X160538095Y-34876190D01*
X159061904Y-34352381D02*
X159538095Y-34352381D01*
X159585714Y-34828571D01*
X159538095Y-34780952D01*
X159442857Y-34733333D01*
X159204761Y-34733333D01*
X159109523Y-34780952D01*
X159061904Y-34828571D01*
X159014285Y-34923810D01*
X159014285Y-35161905D01*
X159061904Y-35257143D01*
X159109523Y-35304762D01*
X159204761Y-35352381D01*
X159442857Y-35352381D01*
X159538095Y-35304762D01*
X159585714Y-35257143D01*
X198116666Y-130752381D02*
X198450000Y-130276190D01*
X198688095Y-130752381D02*
X198688095Y-129752381D01*
X198307142Y-129752381D01*
X198211904Y-129800000D01*
X198164285Y-129847619D01*
X198116666Y-129942857D01*
X198116666Y-130085714D01*
X198164285Y-130180952D01*
X198211904Y-130228571D01*
X198307142Y-130276190D01*
X198688095Y-130276190D01*
X197259523Y-129752381D02*
X197450000Y-129752381D01*
X197545238Y-129800000D01*
X197592857Y-129847619D01*
X197688095Y-129990476D01*
X197735714Y-130180952D01*
X197735714Y-130561905D01*
X197688095Y-130657143D01*
X197640476Y-130704762D01*
X197545238Y-130752381D01*
X197354761Y-130752381D01*
X197259523Y-130704762D01*
X197211904Y-130657143D01*
X197164285Y-130561905D01*
X197164285Y-130323810D01*
X197211904Y-130228571D01*
X197259523Y-130180952D01*
X197354761Y-130133333D01*
X197545238Y-130133333D01*
X197640476Y-130180952D01*
X197688095Y-130228571D01*
X197735714Y-130323810D01*
X168816666Y-105752381D02*
X169150000Y-105276190D01*
X169388095Y-105752381D02*
X169388095Y-104752381D01*
X169007142Y-104752381D01*
X168911904Y-104800000D01*
X168864285Y-104847619D01*
X168816666Y-104942857D01*
X168816666Y-105085714D01*
X168864285Y-105180952D01*
X168911904Y-105228571D01*
X169007142Y-105276190D01*
X169388095Y-105276190D01*
X168483333Y-104752381D02*
X167816666Y-104752381D01*
X168245238Y-105752381D01*
X87642857Y-35002381D02*
X87976191Y-34526190D01*
X88214286Y-35002381D02*
X88214286Y-34002381D01*
X87833333Y-34002381D01*
X87738095Y-34050000D01*
X87690476Y-34097619D01*
X87642857Y-34192857D01*
X87642857Y-34335714D01*
X87690476Y-34430952D01*
X87738095Y-34478571D01*
X87833333Y-34526190D01*
X88214286Y-34526190D01*
X86690476Y-35002381D02*
X87261905Y-35002381D01*
X86976191Y-35002381D02*
X86976191Y-34002381D01*
X87071429Y-34145238D01*
X87166667Y-34240476D01*
X87261905Y-34288095D01*
X86071429Y-34002381D02*
X85976190Y-34002381D01*
X85880952Y-34050000D01*
X85833333Y-34097619D01*
X85785714Y-34192857D01*
X85738095Y-34383333D01*
X85738095Y-34621429D01*
X85785714Y-34811905D01*
X85833333Y-34907143D01*
X85880952Y-34954762D01*
X85976190Y-35002381D01*
X86071429Y-35002381D01*
X86166667Y-34954762D01*
X86214286Y-34907143D01*
X86261905Y-34811905D01*
X86309524Y-34621429D01*
X86309524Y-34383333D01*
X86261905Y-34192857D01*
X86214286Y-34097619D01*
X86166667Y-34050000D01*
X86071429Y-34002381D01*
X118992857Y-35202381D02*
X119326191Y-34726190D01*
X119564286Y-35202381D02*
X119564286Y-34202381D01*
X119183333Y-34202381D01*
X119088095Y-34250000D01*
X119040476Y-34297619D01*
X118992857Y-34392857D01*
X118992857Y-34535714D01*
X119040476Y-34630952D01*
X119088095Y-34678571D01*
X119183333Y-34726190D01*
X119564286Y-34726190D01*
X118040476Y-35202381D02*
X118611905Y-35202381D01*
X118326191Y-35202381D02*
X118326191Y-34202381D01*
X118421429Y-34345238D01*
X118516667Y-34440476D01*
X118611905Y-34488095D01*
X117088095Y-35202381D02*
X117659524Y-35202381D01*
X117373810Y-35202381D02*
X117373810Y-34202381D01*
X117469048Y-34345238D01*
X117564286Y-34440476D01*
X117659524Y-34488095D01*
X78742857Y-104702381D02*
X79076191Y-104226190D01*
X79314286Y-104702381D02*
X79314286Y-103702381D01*
X78933333Y-103702381D01*
X78838095Y-103750000D01*
X78790476Y-103797619D01*
X78742857Y-103892857D01*
X78742857Y-104035714D01*
X78790476Y-104130952D01*
X78838095Y-104178571D01*
X78933333Y-104226190D01*
X79314286Y-104226190D01*
X77790476Y-104702381D02*
X78361905Y-104702381D01*
X78076191Y-104702381D02*
X78076191Y-103702381D01*
X78171429Y-103845238D01*
X78266667Y-103940476D01*
X78361905Y-103988095D01*
X77409524Y-103797619D02*
X77361905Y-103750000D01*
X77266667Y-103702381D01*
X77028571Y-103702381D01*
X76933333Y-103750000D01*
X76885714Y-103797619D01*
X76838095Y-103892857D01*
X76838095Y-103988095D01*
X76885714Y-104130952D01*
X77457143Y-104702381D01*
X76838095Y-104702381D01*
X49542857Y-129902381D02*
X49876191Y-129426190D01*
X50114286Y-129902381D02*
X50114286Y-128902381D01*
X49733333Y-128902381D01*
X49638095Y-128950000D01*
X49590476Y-128997619D01*
X49542857Y-129092857D01*
X49542857Y-129235714D01*
X49590476Y-129330952D01*
X49638095Y-129378571D01*
X49733333Y-129426190D01*
X50114286Y-129426190D01*
X48590476Y-129902381D02*
X49161905Y-129902381D01*
X48876191Y-129902381D02*
X48876191Y-128902381D01*
X48971429Y-129045238D01*
X49066667Y-129140476D01*
X49161905Y-129188095D01*
X48257143Y-128902381D02*
X47638095Y-128902381D01*
X47971429Y-129283333D01*
X47828571Y-129283333D01*
X47733333Y-129330952D01*
X47685714Y-129378571D01*
X47638095Y-129473810D01*
X47638095Y-129711905D01*
X47685714Y-129807143D01*
X47733333Y-129854762D01*
X47828571Y-129902381D01*
X48114286Y-129902381D01*
X48209524Y-129854762D01*
X48257143Y-129807143D01*
X124042857Y-118602381D02*
X124376191Y-118126190D01*
X124614286Y-118602381D02*
X124614286Y-117602381D01*
X124233333Y-117602381D01*
X124138095Y-117650000D01*
X124090476Y-117697619D01*
X124042857Y-117792857D01*
X124042857Y-117935714D01*
X124090476Y-118030952D01*
X124138095Y-118078571D01*
X124233333Y-118126190D01*
X124614286Y-118126190D01*
X123090476Y-118602381D02*
X123661905Y-118602381D01*
X123376191Y-118602381D02*
X123376191Y-117602381D01*
X123471429Y-117745238D01*
X123566667Y-117840476D01*
X123661905Y-117888095D01*
X122233333Y-117602381D02*
X122423810Y-117602381D01*
X122519048Y-117650000D01*
X122566667Y-117697619D01*
X122661905Y-117840476D01*
X122709524Y-118030952D01*
X122709524Y-118411905D01*
X122661905Y-118507143D01*
X122614286Y-118554762D01*
X122519048Y-118602381D01*
X122328571Y-118602381D01*
X122233333Y-118554762D01*
X122185714Y-118507143D01*
X122138095Y-118411905D01*
X122138095Y-118173810D01*
X122185714Y-118078571D01*
X122233333Y-118030952D01*
X122328571Y-117983333D01*
X122519048Y-117983333D01*
X122614286Y-118030952D01*
X122661905Y-118078571D01*
X122709524Y-118173810D01*
X124042857Y-128552381D02*
X124376191Y-128076190D01*
X124614286Y-128552381D02*
X124614286Y-127552381D01*
X124233333Y-127552381D01*
X124138095Y-127600000D01*
X124090476Y-127647619D01*
X124042857Y-127742857D01*
X124042857Y-127885714D01*
X124090476Y-127980952D01*
X124138095Y-128028571D01*
X124233333Y-128076190D01*
X124614286Y-128076190D01*
X123090476Y-128552381D02*
X123661905Y-128552381D01*
X123376191Y-128552381D02*
X123376191Y-127552381D01*
X123471429Y-127695238D01*
X123566667Y-127790476D01*
X123661905Y-127838095D01*
X122757143Y-127552381D02*
X122090476Y-127552381D01*
X122519048Y-128552381D01*
X124042857Y-138652381D02*
X124376191Y-138176190D01*
X124614286Y-138652381D02*
X124614286Y-137652381D01*
X124233333Y-137652381D01*
X124138095Y-137700000D01*
X124090476Y-137747619D01*
X124042857Y-137842857D01*
X124042857Y-137985714D01*
X124090476Y-138080952D01*
X124138095Y-138128571D01*
X124233333Y-138176190D01*
X124614286Y-138176190D01*
X123090476Y-138652381D02*
X123661905Y-138652381D01*
X123376191Y-138652381D02*
X123376191Y-137652381D01*
X123471429Y-137795238D01*
X123566667Y-137890476D01*
X123661905Y-137938095D01*
X122519048Y-138080952D02*
X122614286Y-138033333D01*
X122661905Y-137985714D01*
X122709524Y-137890476D01*
X122709524Y-137842857D01*
X122661905Y-137747619D01*
X122614286Y-137700000D01*
X122519048Y-137652381D01*
X122328571Y-137652381D01*
X122233333Y-137700000D01*
X122185714Y-137747619D01*
X122138095Y-137842857D01*
X122138095Y-137890476D01*
X122185714Y-137985714D01*
X122233333Y-138033333D01*
X122328571Y-138080952D01*
X122519048Y-138080952D01*
X122614286Y-138128571D01*
X122661905Y-138176190D01*
X122709524Y-138271429D01*
X122709524Y-138461905D01*
X122661905Y-138557143D01*
X122614286Y-138604762D01*
X122519048Y-138652381D01*
X122328571Y-138652381D01*
X122233333Y-138604762D01*
X122185714Y-138557143D01*
X122138095Y-138461905D01*
X122138095Y-138271429D01*
X122185714Y-138176190D01*
X122233333Y-138128571D01*
X122328571Y-138080952D01*
M02*
