%TF.GenerationSoftware,KiCad,Pcbnew,4.0.7-e2-6376~58~ubuntu16.04.1*%
%TF.CreationDate,2018-08-15T08:26:31-07:00*%
%TF.ProjectId,psu,7073752E6B696361645F706362000000,rev?*%
%TF.FileFunction,Copper,L1,Top,Signal*%
%FSLAX46Y46*%
G04 Gerber Fmt 4.6, Leading zero omitted, Abs format (unit mm)*
G04 Created by KiCad (PCBNEW 4.0.7-e2-6376~58~ubuntu16.04.1) date Wed Aug 15 08:26:31 2018*
%MOMM*%
%LPD*%
G01*
G04 APERTURE LIST*
%ADD10C,0.100000*%
%ADD11C,2.000000*%
%ADD12R,2.200000X2.200000*%
%ADD13O,2.200000X2.200000*%
%ADD14R,1.800000X1.800000*%
%ADD15C,1.800000*%
%ADD16O,2.500000X4.000000*%
%ADD17R,2.500000X4.000000*%
%ADD18C,1.600000*%
%ADD19O,1.600000X1.600000*%
%ADD20C,1.900000*%
%ADD21R,1.900000X1.900000*%
%ADD22C,5.600000*%
%ADD23O,4.000000X2.500000*%
%ADD24R,4.000000X2.500000*%
%ADD25R,4.000000X4.000000*%
%ADD26C,4.000000*%
%ADD27R,1.600000X1.600000*%
%ADD28R,1.750000X1.750000*%
%ADD29C,1.750000*%
%ADD30C,2.400000*%
%ADD31O,2.400000X2.400000*%
%ADD32R,2.100000X2.100000*%
%ADD33C,2.100000*%
%ADD34C,2.500000*%
%ADD35C,3.000000*%
%ADD36C,0.600000*%
%ADD37C,3.000000*%
%ADD38C,0.250000*%
%ADD39C,6.000000*%
%ADD40C,1.600000*%
%ADD41C,0.254000*%
G04 APERTURE END LIST*
D10*
D11*
X128300000Y-147000000D03*
X118300000Y-147000000D03*
X112300000Y-135300000D03*
X122300000Y-135300000D03*
D12*
X114350000Y-111800000D03*
D13*
X124510000Y-111800000D03*
D14*
X67600000Y-106500000D03*
D15*
X67600000Y-103960000D03*
D16*
X100525000Y-153800000D03*
D17*
X81475000Y-153800000D03*
D16*
X87825000Y-153800000D03*
X94175000Y-153800000D03*
X74475000Y-153800000D03*
D17*
X55425000Y-153800000D03*
D16*
X61775000Y-153800000D03*
X68125000Y-153800000D03*
D18*
X180950000Y-88600000D03*
D19*
X180950000Y-98760000D03*
D18*
X66000000Y-90550000D03*
D19*
X66000000Y-100710000D03*
D11*
X121450000Y-87900000D03*
X118850000Y-97900000D03*
D20*
X105075000Y-61275000D03*
X86975000Y-61275000D03*
X105075000Y-79375000D03*
D21*
X93675000Y-79375000D03*
D22*
X96025000Y-70325000D03*
D23*
X51550000Y-96725000D03*
D24*
X51550000Y-64975000D03*
D23*
X51550000Y-90375000D03*
X51550000Y-71325000D03*
X51550000Y-77675000D03*
X51550000Y-84025000D03*
D18*
X148000000Y-133700000D03*
X143000000Y-133700000D03*
X165850000Y-146950000D03*
X160850000Y-146950000D03*
D11*
X164100000Y-50550000D03*
X156600000Y-50550000D03*
X130950000Y-66050000D03*
X130950000Y-73550000D03*
D18*
X192100000Y-54600000D03*
X192100000Y-59600000D03*
D25*
X141600000Y-30000000D03*
D26*
X141600000Y-40000000D03*
D25*
X178850000Y-30050000D03*
D26*
X178850000Y-40050000D03*
D11*
X186150000Y-78900000D03*
X186150000Y-68900000D03*
X186150000Y-55100000D03*
X186150000Y-65100000D03*
D18*
X196700000Y-59600000D03*
X196700000Y-54600000D03*
X196700000Y-107050000D03*
X196700000Y-102050000D03*
X192100000Y-102050000D03*
X192100000Y-107050000D03*
D25*
X156200000Y-100100000D03*
D26*
X156200000Y-110100000D03*
D25*
X185050000Y-125250000D03*
D26*
X185050000Y-135250000D03*
D11*
X186150000Y-92700000D03*
X186150000Y-82700000D03*
X186150000Y-96550000D03*
X186150000Y-106550000D03*
X170700000Y-61250000D03*
X170700000Y-68750000D03*
X139350000Y-90250000D03*
X131850000Y-90250000D03*
D18*
X80950000Y-146950000D03*
X85950000Y-146950000D03*
X98800000Y-133700000D03*
X103800000Y-133700000D03*
D11*
X115850000Y-73550000D03*
X115850000Y-66050000D03*
X90200000Y-50550000D03*
X82700000Y-50550000D03*
D18*
X54700000Y-54600000D03*
X54700000Y-59600000D03*
D25*
X67950000Y-30050000D03*
D26*
X67950000Y-40050000D03*
D25*
X105200000Y-30050000D03*
D26*
X105200000Y-40050000D03*
D11*
X60650000Y-78900000D03*
X60650000Y-68900000D03*
X60650000Y-55100000D03*
X60650000Y-65100000D03*
D18*
X50100000Y-59600000D03*
X50100000Y-54600000D03*
X50100000Y-107050000D03*
X50100000Y-102050000D03*
X54700000Y-102050000D03*
X54700000Y-107050000D03*
D25*
X90600000Y-100100000D03*
D26*
X90600000Y-110100000D03*
D25*
X61750000Y-125250000D03*
D26*
X61750000Y-135250000D03*
D11*
X60650000Y-92700000D03*
X60650000Y-82700000D03*
X60650000Y-96550000D03*
X60650000Y-106550000D03*
X114950000Y-90250000D03*
X107450000Y-90250000D03*
X76100000Y-68750000D03*
X76100000Y-61250000D03*
D27*
X114900000Y-107100000D03*
D18*
X116900000Y-107100000D03*
D12*
X114350000Y-115300000D03*
D13*
X124510000Y-115300000D03*
D23*
X195250000Y-64975000D03*
D24*
X195250000Y-96725000D03*
D23*
X195250000Y-71325000D03*
X195250000Y-90375000D03*
X195250000Y-84025000D03*
X195250000Y-77675000D03*
D16*
X165325000Y-153800000D03*
D17*
X146275000Y-153800000D03*
D16*
X152625000Y-153800000D03*
X158975000Y-153800000D03*
X191375000Y-153800000D03*
D17*
X172325000Y-153800000D03*
D16*
X178675000Y-153800000D03*
X185025000Y-153800000D03*
D28*
X179750000Y-102950000D03*
D29*
X179750000Y-105450000D03*
D18*
X200700000Y-49700000D03*
D19*
X200700000Y-59860000D03*
D30*
X128400000Y-20000000D03*
D31*
X128400000Y-50480000D03*
D30*
X159800000Y-20000000D03*
D31*
X159800000Y-50480000D03*
D30*
X197900000Y-115050000D03*
D31*
X197900000Y-145530000D03*
D30*
X168650000Y-89450000D03*
D31*
X168650000Y-119930000D03*
D18*
X200700000Y-101750000D03*
D19*
X200700000Y-111910000D03*
D18*
X46100000Y-49700000D03*
D19*
X46100000Y-59860000D03*
D30*
X87000000Y-20000000D03*
D31*
X87000000Y-50480000D03*
D30*
X118400000Y-20000000D03*
D31*
X118400000Y-50480000D03*
D30*
X78150000Y-89450000D03*
D31*
X78150000Y-119930000D03*
D30*
X48900000Y-115050000D03*
D31*
X48900000Y-145530000D03*
D18*
X46100000Y-101750000D03*
D19*
X46100000Y-111910000D03*
D18*
X111050000Y-113600000D03*
D19*
X111050000Y-98360000D03*
D30*
X108250000Y-118150000D03*
D31*
X138730000Y-118150000D03*
D30*
X108250000Y-128100000D03*
D31*
X138730000Y-128100000D03*
D30*
X108250000Y-138150000D03*
D31*
X138730000Y-138150000D03*
D20*
X141725000Y-61275000D03*
X141725000Y-79375000D03*
X159825000Y-61275000D03*
D21*
X159825000Y-72675000D03*
D22*
X150775000Y-70325000D03*
D32*
X126000000Y-99250000D03*
D33*
X126000000Y-94150000D03*
X126000000Y-83950000D03*
X126000000Y-89050000D03*
D34*
X113900000Y-131050000D03*
D35*
X126100000Y-131050000D03*
D34*
X113900000Y-119050000D03*
D35*
X111950000Y-125000000D03*
D16*
X139275000Y-153800000D03*
D17*
X107525000Y-153800000D03*
D16*
X132925000Y-153800000D03*
X113875000Y-153800000D03*
X120225000Y-153800000D03*
X126575000Y-153800000D03*
D36*
X93300000Y-95500000D03*
X93300000Y-96850000D03*
X87900000Y-95500000D03*
X87900000Y-96850000D03*
X89250000Y-96850000D03*
X89250000Y-95500000D03*
X91950000Y-95500000D03*
X91950000Y-96850000D03*
X90600000Y-95500000D03*
X90600000Y-96850000D03*
D37*
X139275000Y-153800000D02*
X139275000Y-149825000D01*
X136450000Y-147000000D02*
X128300000Y-147000000D01*
X139275000Y-149825000D02*
X136450000Y-147000000D01*
X100375000Y-153850000D02*
X94025000Y-153850000D01*
X152425000Y-153950000D02*
X146075000Y-153950000D01*
X146075000Y-153950000D02*
X145925000Y-153800000D01*
X145925000Y-153800000D02*
X139275000Y-153800000D01*
X139275000Y-153800000D02*
X139275000Y-155225000D01*
X139275000Y-155225000D02*
X135450000Y-159050000D01*
X135450000Y-159050000D02*
X103750000Y-159050000D01*
X103750000Y-159050000D02*
X100375000Y-155675000D01*
X100375000Y-155675000D02*
X100375000Y-153850000D01*
X138730000Y-128100000D02*
X138730000Y-118150000D01*
X138730000Y-138150000D02*
X138730000Y-128100000D01*
X126100000Y-131050000D02*
X135780000Y-131050000D01*
X135780000Y-131050000D02*
X138730000Y-128100000D01*
X108250000Y-128100000D02*
X108850000Y-128100000D01*
X108850000Y-128100000D02*
X111950000Y-125000000D01*
X108250000Y-128100000D02*
X108250000Y-118150000D01*
X108250000Y-128100000D02*
X108250000Y-118150000D01*
X108250000Y-138150000D02*
X108250000Y-128100000D01*
X158775000Y-153950000D02*
X165125000Y-153950000D01*
X158775000Y-153950000D02*
X158775000Y-150275000D01*
X119550000Y-142550000D02*
X112300000Y-135300000D01*
X151050000Y-142550000D02*
X119550000Y-142550000D01*
X158775000Y-150275000D02*
X151050000Y-142550000D01*
X108250000Y-138150000D02*
X109450000Y-138150000D01*
X109450000Y-138150000D02*
X112300000Y-135300000D01*
X87675000Y-153850000D02*
X87675000Y-151075000D01*
X100600000Y-138150000D02*
X108250000Y-138150000D01*
X87675000Y-151075000D02*
X100600000Y-138150000D01*
X87675000Y-153850000D02*
X81325000Y-153850000D01*
X126000000Y-94150000D02*
X121450000Y-89600000D01*
X121450000Y-89600000D02*
X121450000Y-87900000D01*
D38*
X91950000Y-96850000D02*
X93300000Y-96850000D01*
X89250000Y-95500000D02*
X87900000Y-95500000D01*
X89250000Y-96850000D02*
X87900000Y-96850000D01*
D37*
X111050000Y-98360000D02*
X107450000Y-94760000D01*
X107450000Y-94760000D02*
X107450000Y-90250000D01*
X76100000Y-68750000D02*
X76100000Y-80450000D01*
X76100000Y-80450000D02*
X66000000Y-90550000D01*
D38*
X89250000Y-95500000D02*
X89250000Y-96850000D01*
X91950000Y-95500000D02*
X91950000Y-96850000D01*
X90600000Y-95500000D02*
X90550000Y-95500000D01*
X90550000Y-96750000D02*
X90550000Y-96800000D01*
X90550000Y-96800000D02*
X90600000Y-96850000D01*
D37*
X107450000Y-90250000D02*
X96575000Y-79375000D01*
X96575000Y-79375000D02*
X93175002Y-79375000D01*
X93175002Y-79375000D02*
X93675000Y-79375000D01*
D39*
X148200000Y-83750000D02*
X148200000Y-78200000D01*
X147150000Y-125450000D02*
X147150000Y-84800000D01*
X148200000Y-83750000D02*
X147150000Y-84800000D01*
X150225000Y-61275000D02*
X159825000Y-61275000D01*
X149325000Y-61275000D02*
X150225000Y-61275000D01*
X143200000Y-67400000D02*
X149325000Y-61275000D01*
X143200000Y-73200000D02*
X143200000Y-67400000D01*
X148200000Y-78200000D02*
X143200000Y-73200000D01*
D37*
X159825000Y-61275000D02*
X164100000Y-57000000D01*
X164100000Y-57000000D02*
X164100000Y-50550000D01*
X159825000Y-61275000D02*
X159850000Y-61250000D01*
X159850000Y-61250000D02*
X170700000Y-61250000D01*
X148000000Y-133700000D02*
X148050000Y-133700000D01*
X148050000Y-133700000D02*
X151725000Y-130025000D01*
X148000000Y-133700000D02*
X148000000Y-126300000D01*
X148000000Y-126300000D02*
X147150000Y-125450000D01*
X148000000Y-133700000D02*
X154400000Y-133700000D01*
X154400000Y-133700000D02*
X154900000Y-133200000D01*
D39*
X191375000Y-149425000D02*
X191375000Y-153800000D01*
X186650000Y-144700000D02*
X191375000Y-149425000D01*
X171850000Y-144700000D02*
X186650000Y-144700000D01*
X160350000Y-133200000D02*
X171850000Y-144700000D01*
X154900000Y-133200000D02*
X160350000Y-133200000D01*
X147150000Y-125450000D02*
X151725000Y-130025000D01*
X151725000Y-130025000D02*
X154900000Y-133200000D01*
D37*
X114950000Y-90250000D02*
X114950000Y-74450000D01*
X114950000Y-74450000D02*
X115850000Y-73550000D01*
X83600000Y-63350000D02*
X82700000Y-62450000D01*
X82700000Y-62450000D02*
X82700000Y-50550000D01*
X84250000Y-64000000D02*
X83600000Y-63350000D01*
X83600000Y-63350000D02*
X81500000Y-61250000D01*
X81500000Y-61250000D02*
X76100000Y-61250000D01*
D39*
X84250000Y-65225000D02*
X84250000Y-64000000D01*
X88700000Y-89750000D02*
X84250000Y-85300000D01*
X94950000Y-89750000D02*
X88700000Y-89750000D01*
X99650000Y-94450000D02*
X94950000Y-89750000D01*
X99650000Y-125400000D02*
X99650000Y-94450000D01*
X84250000Y-85300000D02*
X84250000Y-65225000D01*
X84250000Y-64000000D02*
X86975000Y-61275000D01*
D37*
X98800000Y-133700000D02*
X95075000Y-129975000D01*
X94900000Y-129800000D02*
X94900000Y-130150000D01*
X95075000Y-129975000D02*
X94900000Y-129800000D01*
X98800000Y-133700000D02*
X98800000Y-126250000D01*
X98800000Y-126250000D02*
X99650000Y-125400000D01*
X98800000Y-133700000D02*
X92250000Y-133700000D01*
X92250000Y-133700000D02*
X91800000Y-133250000D01*
D39*
X55425000Y-153800000D02*
X55425000Y-150525000D01*
X91800000Y-133250000D02*
X94900000Y-130150000D01*
X94900000Y-130150000D02*
X99650000Y-125400000D01*
X86150000Y-133250000D02*
X91800000Y-133250000D01*
X74700000Y-144700000D02*
X86150000Y-133250000D01*
X61250000Y-144700000D02*
X74700000Y-144700000D01*
X55425000Y-150525000D02*
X61250000Y-144700000D01*
D40*
X114350000Y-111800000D02*
X114900000Y-111250000D01*
X114900000Y-111250000D02*
X114900000Y-107100000D01*
X114350000Y-115300000D02*
X112650000Y-113600000D01*
X112650000Y-113600000D02*
X111050000Y-113600000D01*
X114350000Y-115300000D02*
X114350000Y-111800000D01*
X113900000Y-119050000D02*
X114350000Y-118600000D01*
X114350000Y-118600000D02*
X114350000Y-115300000D01*
D41*
G36*
X48985276Y-82273497D02*
X48448329Y-83077093D01*
X48259779Y-84025000D01*
X48448329Y-84972907D01*
X48985276Y-85776503D01*
X49788872Y-86313450D01*
X50736779Y-86502000D01*
X52363221Y-86502000D01*
X53311128Y-86313450D01*
X54114724Y-85776503D01*
X54651671Y-84972907D01*
X54840221Y-84025000D01*
X54651671Y-83077093D01*
X54114724Y-82273497D01*
X53670986Y-81977000D01*
X58538855Y-81977000D01*
X58423387Y-82255079D01*
X58422614Y-83141034D01*
X58760940Y-83959846D01*
X59386858Y-84586858D01*
X60205079Y-84926613D01*
X61091034Y-84927386D01*
X61909846Y-84589060D01*
X62536858Y-83963142D01*
X62876613Y-83144921D01*
X62877386Y-82258966D01*
X62760880Y-81977000D01*
X80023000Y-81977000D01*
X80023000Y-85300000D01*
X80313623Y-86761060D01*
X80344761Y-86917603D01*
X81261060Y-88288940D01*
X85711059Y-92738940D01*
X87082397Y-93655239D01*
X88700000Y-93977000D01*
X93199120Y-93977000D01*
X95423000Y-96200881D01*
X95423000Y-123649119D01*
X91911060Y-127161060D01*
X90049120Y-129023000D01*
X86150000Y-129023000D01*
X84731088Y-129305239D01*
X84532397Y-129344761D01*
X83442511Y-130073000D01*
X44177000Y-130073000D01*
X44177000Y-119882452D01*
X75723000Y-119882452D01*
X75723000Y-119977548D01*
X75907744Y-120906321D01*
X76433852Y-121693696D01*
X77221227Y-122219804D01*
X78150000Y-122404548D01*
X79078773Y-122219804D01*
X79866148Y-121693696D01*
X80392256Y-120906321D01*
X80577000Y-119977548D01*
X80577000Y-119882452D01*
X80392256Y-118953679D01*
X79866148Y-118166304D01*
X79078773Y-117640196D01*
X78150000Y-117455452D01*
X77221227Y-117640196D01*
X76433852Y-118166304D01*
X75907744Y-118953679D01*
X75723000Y-119882452D01*
X44177000Y-119882452D01*
X44177000Y-112472555D01*
X44227296Y-112725410D01*
X44666695Y-113383016D01*
X45324301Y-113822415D01*
X46100000Y-113976711D01*
X46875699Y-113822415D01*
X47533305Y-113383016D01*
X47972704Y-112725410D01*
X48127000Y-111949711D01*
X48127000Y-111870289D01*
X47972704Y-111094590D01*
X47735156Y-110739074D01*
X87372441Y-110739074D01*
X87862687Y-111925561D01*
X88769664Y-112834123D01*
X89955294Y-113326439D01*
X91239074Y-113327559D01*
X92425561Y-112837313D01*
X93334123Y-111930336D01*
X93826439Y-110744706D01*
X93827559Y-109460926D01*
X93337313Y-108274439D01*
X92430336Y-107365877D01*
X91244706Y-106873561D01*
X89960926Y-106872441D01*
X88774439Y-107362687D01*
X87865877Y-108269664D01*
X87373561Y-109455294D01*
X87372441Y-110739074D01*
X47735156Y-110739074D01*
X47533305Y-110436984D01*
X46875699Y-109997585D01*
X46100000Y-109843289D01*
X45324301Y-109997585D01*
X44666695Y-110436984D01*
X44227296Y-111094590D01*
X44177000Y-111347445D01*
X44177000Y-107451426D01*
X48072649Y-107451426D01*
X48380591Y-108196703D01*
X48950298Y-108767405D01*
X49695036Y-109076647D01*
X50501426Y-109077351D01*
X51246703Y-108769409D01*
X51817405Y-108199702D01*
X52126647Y-107454964D01*
X52126650Y-107451426D01*
X52672649Y-107451426D01*
X52980591Y-108196703D01*
X53550298Y-108767405D01*
X54295036Y-109076647D01*
X55101426Y-109077351D01*
X55846703Y-108769409D01*
X56417405Y-108199702D01*
X56726647Y-107454964D01*
X56727052Y-106991034D01*
X58422614Y-106991034D01*
X58760940Y-107809846D01*
X59386858Y-108436858D01*
X60205079Y-108776613D01*
X61091034Y-108777386D01*
X61909846Y-108439060D01*
X62536858Y-107813142D01*
X62876613Y-106994921D01*
X62877386Y-106108966D01*
X62539060Y-105290154D01*
X61913142Y-104663142D01*
X61094921Y-104323387D01*
X60208966Y-104322614D01*
X59390154Y-104660940D01*
X58763142Y-105286858D01*
X58423387Y-106105079D01*
X58422614Y-106991034D01*
X56727052Y-106991034D01*
X56727351Y-106648574D01*
X56419409Y-105903297D01*
X55849702Y-105332595D01*
X55104964Y-105023353D01*
X54298574Y-105022649D01*
X53553297Y-105330591D01*
X52982595Y-105900298D01*
X52673353Y-106645036D01*
X52672649Y-107451426D01*
X52126650Y-107451426D01*
X52127351Y-106648574D01*
X51819409Y-105903297D01*
X51249702Y-105332595D01*
X50504964Y-105023353D01*
X49698574Y-105022649D01*
X48953297Y-105330591D01*
X48382595Y-105900298D01*
X48073353Y-106645036D01*
X48072649Y-107451426D01*
X44177000Y-107451426D01*
X44177000Y-102451426D01*
X48072649Y-102451426D01*
X48380591Y-103196703D01*
X48950298Y-103767405D01*
X49695036Y-104076647D01*
X50501426Y-104077351D01*
X51246703Y-103769409D01*
X51817405Y-103199702D01*
X52126647Y-102454964D01*
X52127351Y-101648574D01*
X51819409Y-100903297D01*
X51586808Y-100670289D01*
X63973000Y-100670289D01*
X63973000Y-100749711D01*
X64127296Y-101525410D01*
X64566695Y-102183016D01*
X65224301Y-102622415D01*
X65812130Y-102739341D01*
X65797869Y-102753578D01*
X65473370Y-103535057D01*
X65472632Y-104381230D01*
X65689345Y-104905717D01*
X65547526Y-105113276D01*
X65448962Y-105600000D01*
X65448962Y-107400000D01*
X65534519Y-107854699D01*
X65803246Y-108272312D01*
X66213276Y-108552474D01*
X66700000Y-108651038D01*
X68500000Y-108651038D01*
X68954699Y-108565481D01*
X69372312Y-108296754D01*
X69652474Y-107886724D01*
X69751038Y-107400000D01*
X69751038Y-105600000D01*
X69665481Y-105145301D01*
X69510749Y-104904841D01*
X69726630Y-104384943D01*
X69727368Y-103538770D01*
X69404234Y-102756726D01*
X68806422Y-102157869D01*
X68024943Y-101833370D01*
X67667140Y-101833058D01*
X67872704Y-101525410D01*
X68027000Y-100749711D01*
X68027000Y-100670289D01*
X67872704Y-99894590D01*
X67433305Y-99236984D01*
X66775699Y-98797585D01*
X66000000Y-98643289D01*
X65224301Y-98797585D01*
X64566695Y-99236984D01*
X64127296Y-99894590D01*
X63973000Y-100670289D01*
X51586808Y-100670289D01*
X51249702Y-100332595D01*
X50504964Y-100023353D01*
X49698574Y-100022649D01*
X48953297Y-100330591D01*
X48382595Y-100900298D01*
X48073353Y-101645036D01*
X48072649Y-102451426D01*
X44177000Y-102451426D01*
X44177000Y-81977000D01*
X49429014Y-81977000D01*
X48985276Y-82273497D01*
X48985276Y-82273497D01*
G37*
X48985276Y-82273497D02*
X48448329Y-83077093D01*
X48259779Y-84025000D01*
X48448329Y-84972907D01*
X48985276Y-85776503D01*
X49788872Y-86313450D01*
X50736779Y-86502000D01*
X52363221Y-86502000D01*
X53311128Y-86313450D01*
X54114724Y-85776503D01*
X54651671Y-84972907D01*
X54840221Y-84025000D01*
X54651671Y-83077093D01*
X54114724Y-82273497D01*
X53670986Y-81977000D01*
X58538855Y-81977000D01*
X58423387Y-82255079D01*
X58422614Y-83141034D01*
X58760940Y-83959846D01*
X59386858Y-84586858D01*
X60205079Y-84926613D01*
X61091034Y-84927386D01*
X61909846Y-84589060D01*
X62536858Y-83963142D01*
X62876613Y-83144921D01*
X62877386Y-82258966D01*
X62760880Y-81977000D01*
X80023000Y-81977000D01*
X80023000Y-85300000D01*
X80313623Y-86761060D01*
X80344761Y-86917603D01*
X81261060Y-88288940D01*
X85711059Y-92738940D01*
X87082397Y-93655239D01*
X88700000Y-93977000D01*
X93199120Y-93977000D01*
X95423000Y-96200881D01*
X95423000Y-123649119D01*
X91911060Y-127161060D01*
X90049120Y-129023000D01*
X86150000Y-129023000D01*
X84731088Y-129305239D01*
X84532397Y-129344761D01*
X83442511Y-130073000D01*
X44177000Y-130073000D01*
X44177000Y-119882452D01*
X75723000Y-119882452D01*
X75723000Y-119977548D01*
X75907744Y-120906321D01*
X76433852Y-121693696D01*
X77221227Y-122219804D01*
X78150000Y-122404548D01*
X79078773Y-122219804D01*
X79866148Y-121693696D01*
X80392256Y-120906321D01*
X80577000Y-119977548D01*
X80577000Y-119882452D01*
X80392256Y-118953679D01*
X79866148Y-118166304D01*
X79078773Y-117640196D01*
X78150000Y-117455452D01*
X77221227Y-117640196D01*
X76433852Y-118166304D01*
X75907744Y-118953679D01*
X75723000Y-119882452D01*
X44177000Y-119882452D01*
X44177000Y-112472555D01*
X44227296Y-112725410D01*
X44666695Y-113383016D01*
X45324301Y-113822415D01*
X46100000Y-113976711D01*
X46875699Y-113822415D01*
X47533305Y-113383016D01*
X47972704Y-112725410D01*
X48127000Y-111949711D01*
X48127000Y-111870289D01*
X47972704Y-111094590D01*
X47735156Y-110739074D01*
X87372441Y-110739074D01*
X87862687Y-111925561D01*
X88769664Y-112834123D01*
X89955294Y-113326439D01*
X91239074Y-113327559D01*
X92425561Y-112837313D01*
X93334123Y-111930336D01*
X93826439Y-110744706D01*
X93827559Y-109460926D01*
X93337313Y-108274439D01*
X92430336Y-107365877D01*
X91244706Y-106873561D01*
X89960926Y-106872441D01*
X88774439Y-107362687D01*
X87865877Y-108269664D01*
X87373561Y-109455294D01*
X87372441Y-110739074D01*
X47735156Y-110739074D01*
X47533305Y-110436984D01*
X46875699Y-109997585D01*
X46100000Y-109843289D01*
X45324301Y-109997585D01*
X44666695Y-110436984D01*
X44227296Y-111094590D01*
X44177000Y-111347445D01*
X44177000Y-107451426D01*
X48072649Y-107451426D01*
X48380591Y-108196703D01*
X48950298Y-108767405D01*
X49695036Y-109076647D01*
X50501426Y-109077351D01*
X51246703Y-108769409D01*
X51817405Y-108199702D01*
X52126647Y-107454964D01*
X52126650Y-107451426D01*
X52672649Y-107451426D01*
X52980591Y-108196703D01*
X53550298Y-108767405D01*
X54295036Y-109076647D01*
X55101426Y-109077351D01*
X55846703Y-108769409D01*
X56417405Y-108199702D01*
X56726647Y-107454964D01*
X56727052Y-106991034D01*
X58422614Y-106991034D01*
X58760940Y-107809846D01*
X59386858Y-108436858D01*
X60205079Y-108776613D01*
X61091034Y-108777386D01*
X61909846Y-108439060D01*
X62536858Y-107813142D01*
X62876613Y-106994921D01*
X62877386Y-106108966D01*
X62539060Y-105290154D01*
X61913142Y-104663142D01*
X61094921Y-104323387D01*
X60208966Y-104322614D01*
X59390154Y-104660940D01*
X58763142Y-105286858D01*
X58423387Y-106105079D01*
X58422614Y-106991034D01*
X56727052Y-106991034D01*
X56727351Y-106648574D01*
X56419409Y-105903297D01*
X55849702Y-105332595D01*
X55104964Y-105023353D01*
X54298574Y-105022649D01*
X53553297Y-105330591D01*
X52982595Y-105900298D01*
X52673353Y-106645036D01*
X52672649Y-107451426D01*
X52126650Y-107451426D01*
X52127351Y-106648574D01*
X51819409Y-105903297D01*
X51249702Y-105332595D01*
X50504964Y-105023353D01*
X49698574Y-105022649D01*
X48953297Y-105330591D01*
X48382595Y-105900298D01*
X48073353Y-106645036D01*
X48072649Y-107451426D01*
X44177000Y-107451426D01*
X44177000Y-102451426D01*
X48072649Y-102451426D01*
X48380591Y-103196703D01*
X48950298Y-103767405D01*
X49695036Y-104076647D01*
X50501426Y-104077351D01*
X51246703Y-103769409D01*
X51817405Y-103199702D01*
X52126647Y-102454964D01*
X52127351Y-101648574D01*
X51819409Y-100903297D01*
X51586808Y-100670289D01*
X63973000Y-100670289D01*
X63973000Y-100749711D01*
X64127296Y-101525410D01*
X64566695Y-102183016D01*
X65224301Y-102622415D01*
X65812130Y-102739341D01*
X65797869Y-102753578D01*
X65473370Y-103535057D01*
X65472632Y-104381230D01*
X65689345Y-104905717D01*
X65547526Y-105113276D01*
X65448962Y-105600000D01*
X65448962Y-107400000D01*
X65534519Y-107854699D01*
X65803246Y-108272312D01*
X66213276Y-108552474D01*
X66700000Y-108651038D01*
X68500000Y-108651038D01*
X68954699Y-108565481D01*
X69372312Y-108296754D01*
X69652474Y-107886724D01*
X69751038Y-107400000D01*
X69751038Y-105600000D01*
X69665481Y-105145301D01*
X69510749Y-104904841D01*
X69726630Y-104384943D01*
X69727368Y-103538770D01*
X69404234Y-102756726D01*
X68806422Y-102157869D01*
X68024943Y-101833370D01*
X67667140Y-101833058D01*
X67872704Y-101525410D01*
X68027000Y-100749711D01*
X68027000Y-100670289D01*
X67872704Y-99894590D01*
X67433305Y-99236984D01*
X66775699Y-98797585D01*
X66000000Y-98643289D01*
X65224301Y-98797585D01*
X64566695Y-99236984D01*
X64127296Y-99894590D01*
X63973000Y-100670289D01*
X51586808Y-100670289D01*
X51249702Y-100332595D01*
X50504964Y-100023353D01*
X49698574Y-100022649D01*
X48953297Y-100330591D01*
X48382595Y-100900298D01*
X48073353Y-101645036D01*
X48072649Y-102451426D01*
X44177000Y-102451426D01*
X44177000Y-81977000D01*
X49429014Y-81977000D01*
X48985276Y-82273497D01*
G36*
X85627011Y-17941290D02*
X84943689Y-18623420D01*
X84573422Y-19515122D01*
X84572579Y-20480642D01*
X84941290Y-21372989D01*
X85623420Y-22056311D01*
X86515122Y-22426578D01*
X87480642Y-22427421D01*
X88372989Y-22058710D01*
X89056311Y-21376580D01*
X89426578Y-20484878D01*
X89427421Y-19519358D01*
X89058710Y-18627011D01*
X88376580Y-17943689D01*
X87854735Y-17727000D01*
X117545631Y-17727000D01*
X117027011Y-17941290D01*
X116343689Y-18623420D01*
X115973422Y-19515122D01*
X115972579Y-20480642D01*
X116341290Y-21372989D01*
X117023420Y-22056311D01*
X117915122Y-22426578D01*
X118880642Y-22427421D01*
X119772989Y-22058710D01*
X120456311Y-21376580D01*
X120826578Y-20484878D01*
X120827421Y-19519358D01*
X120458710Y-18627011D01*
X119776580Y-17943689D01*
X119254735Y-17727000D01*
X121923000Y-17727000D01*
X121923000Y-69223000D01*
X99926883Y-69223000D01*
X99440915Y-68046868D01*
X98309091Y-66913066D01*
X96829534Y-66298700D01*
X95227494Y-66297302D01*
X93746868Y-66909085D01*
X92613066Y-68040909D01*
X92122219Y-69223000D01*
X88477000Y-69223000D01*
X88477000Y-65750880D01*
X89963940Y-64263940D01*
X90880239Y-62892603D01*
X91202000Y-61275000D01*
X90880239Y-59657397D01*
X89963940Y-58286060D01*
X88802273Y-57509858D01*
X115572511Y-57509858D01*
X116001989Y-58549275D01*
X116796542Y-59345216D01*
X117835208Y-59776508D01*
X118959858Y-59777489D01*
X119999275Y-59348011D01*
X120795216Y-58553458D01*
X121226508Y-57514792D01*
X121227489Y-56390142D01*
X120798011Y-55350725D01*
X120003458Y-54554784D01*
X118964792Y-54123492D01*
X117840142Y-54122511D01*
X116800725Y-54551989D01*
X116004784Y-55346542D01*
X115573492Y-56385208D01*
X115572511Y-57509858D01*
X88802273Y-57509858D01*
X88592603Y-57369761D01*
X86975000Y-57048000D01*
X85427000Y-57355916D01*
X85427000Y-50550000D01*
X85219419Y-49506422D01*
X84628280Y-48621720D01*
X83743578Y-48030581D01*
X82700000Y-47823000D01*
X81656422Y-48030581D01*
X80771720Y-48621720D01*
X80180581Y-49506422D01*
X79973000Y-50550000D01*
X79973000Y-58523000D01*
X76100000Y-58523000D01*
X75056422Y-58730581D01*
X74171720Y-59321720D01*
X73580581Y-60206422D01*
X73373000Y-61250000D01*
X73580581Y-62293578D01*
X74171720Y-63178280D01*
X75056422Y-63769419D01*
X76100000Y-63977000D01*
X80027575Y-63977000D01*
X80023000Y-64000000D01*
X80023000Y-69223000D01*
X78827000Y-69223000D01*
X78827000Y-68750000D01*
X78619419Y-67706422D01*
X78028280Y-66821720D01*
X77143578Y-66230581D01*
X76100000Y-66023000D01*
X75056422Y-66230581D01*
X74171720Y-66821720D01*
X73580581Y-67706422D01*
X73373000Y-68750000D01*
X73373000Y-69223000D01*
X73300000Y-69223000D01*
X73250590Y-69233006D01*
X73208965Y-69261447D01*
X73181685Y-69303841D01*
X73173000Y-69350000D01*
X73173000Y-79520440D01*
X72970440Y-79723000D01*
X62719621Y-79723000D01*
X62876613Y-79344921D01*
X62877386Y-78458966D01*
X62539060Y-77640154D01*
X61913142Y-77013142D01*
X61094921Y-76673387D01*
X60208966Y-76672614D01*
X59390154Y-77010940D01*
X58763142Y-77636858D01*
X58423387Y-78455079D01*
X58422614Y-79341034D01*
X58580439Y-79723000D01*
X53670986Y-79723000D01*
X54114724Y-79426503D01*
X54651671Y-78622907D01*
X54840221Y-77675000D01*
X54651671Y-76727093D01*
X54114724Y-75923497D01*
X53311128Y-75386550D01*
X52363221Y-75198000D01*
X50736779Y-75198000D01*
X49788872Y-75386550D01*
X48985276Y-75923497D01*
X48448329Y-76727093D01*
X48259779Y-77675000D01*
X48448329Y-78622907D01*
X48985276Y-79426503D01*
X49429014Y-79723000D01*
X44177000Y-79723000D01*
X44177000Y-60001426D01*
X48072649Y-60001426D01*
X48380591Y-60746703D01*
X48950298Y-61317405D01*
X49695036Y-61626647D01*
X50501426Y-61627351D01*
X51246703Y-61319409D01*
X51817405Y-60749702D01*
X52126647Y-60004964D01*
X52127351Y-59198574D01*
X51819409Y-58453297D01*
X51249702Y-57882595D01*
X50504964Y-57573353D01*
X49698574Y-57572649D01*
X48953297Y-57880591D01*
X48382595Y-58450298D01*
X48073353Y-59195036D01*
X48072649Y-60001426D01*
X44177000Y-60001426D01*
X44177000Y-55001426D01*
X48072649Y-55001426D01*
X48380591Y-55746703D01*
X48950298Y-56317405D01*
X49695036Y-56626647D01*
X50501426Y-56627351D01*
X51246703Y-56319409D01*
X51817405Y-55749702D01*
X52126647Y-55004964D01*
X52126650Y-55001426D01*
X52672649Y-55001426D01*
X52980591Y-55746703D01*
X53550298Y-56317405D01*
X54295036Y-56626647D01*
X55101426Y-56627351D01*
X55846703Y-56319409D01*
X56417405Y-55749702D01*
X56504051Y-55541034D01*
X58422614Y-55541034D01*
X58760940Y-56359846D01*
X59386858Y-56986858D01*
X60205079Y-57326613D01*
X61091034Y-57327386D01*
X61909846Y-56989060D01*
X62536858Y-56363142D01*
X62876613Y-55544921D01*
X62877386Y-54658966D01*
X62539060Y-53840154D01*
X61913142Y-53213142D01*
X61094921Y-52873387D01*
X60208966Y-52872614D01*
X59390154Y-53210940D01*
X58763142Y-53836858D01*
X58423387Y-54655079D01*
X58422614Y-55541034D01*
X56504051Y-55541034D01*
X56726647Y-55004964D01*
X56727351Y-54198574D01*
X56419409Y-53453297D01*
X55849702Y-52882595D01*
X55104964Y-52573353D01*
X54298574Y-52572649D01*
X53553297Y-52880591D01*
X52982595Y-53450298D01*
X52673353Y-54195036D01*
X52672649Y-55001426D01*
X52126650Y-55001426D01*
X52127351Y-54198574D01*
X51819409Y-53453297D01*
X51249702Y-52882595D01*
X50504964Y-52573353D01*
X49698574Y-52572649D01*
X48953297Y-52880591D01*
X48382595Y-53450298D01*
X48073353Y-54195036D01*
X48072649Y-55001426D01*
X44177000Y-55001426D01*
X44177000Y-50353975D01*
X44380591Y-50846703D01*
X44950298Y-51417405D01*
X45695036Y-51726647D01*
X46501426Y-51727351D01*
X47246703Y-51419409D01*
X47817405Y-50849702D01*
X48126647Y-50104964D01*
X48127351Y-49298574D01*
X47819409Y-48553297D01*
X47249702Y-47982595D01*
X46504964Y-47673353D01*
X45698574Y-47672649D01*
X44953297Y-47980591D01*
X44382595Y-48550298D01*
X44177000Y-49045426D01*
X44177000Y-27509858D01*
X45572511Y-27509858D01*
X46001989Y-28549275D01*
X46796542Y-29345216D01*
X47835208Y-29776508D01*
X48959858Y-29777489D01*
X49999275Y-29348011D01*
X50795216Y-28553458D01*
X51004270Y-28050000D01*
X64698962Y-28050000D01*
X64698962Y-32050000D01*
X64784519Y-32504699D01*
X65053246Y-32922312D01*
X65463276Y-33202474D01*
X65950000Y-33301038D01*
X69950000Y-33301038D01*
X70404699Y-33215481D01*
X70822312Y-32946754D01*
X71102474Y-32536724D01*
X71201038Y-32050000D01*
X71201038Y-28050000D01*
X101948962Y-28050000D01*
X101948962Y-32050000D01*
X102034519Y-32504699D01*
X102303246Y-32922312D01*
X102713276Y-33202474D01*
X103200000Y-33301038D01*
X107200000Y-33301038D01*
X107654699Y-33215481D01*
X108072312Y-32946754D01*
X108352474Y-32536724D01*
X108451038Y-32050000D01*
X108451038Y-28050000D01*
X108365481Y-27595301D01*
X108096754Y-27177688D01*
X107686724Y-26897526D01*
X107200000Y-26798962D01*
X103200000Y-26798962D01*
X102745301Y-26884519D01*
X102327688Y-27153246D01*
X102047526Y-27563276D01*
X101948962Y-28050000D01*
X71201038Y-28050000D01*
X71115481Y-27595301D01*
X70846754Y-27177688D01*
X70436724Y-26897526D01*
X69950000Y-26798962D01*
X65950000Y-26798962D01*
X65495301Y-26884519D01*
X65077688Y-27153246D01*
X64797526Y-27563276D01*
X64698962Y-28050000D01*
X51004270Y-28050000D01*
X51226508Y-27514792D01*
X51227489Y-26390142D01*
X50798011Y-25350725D01*
X50003458Y-24554784D01*
X48964792Y-24123492D01*
X47840142Y-24122511D01*
X46800725Y-24551989D01*
X46004784Y-25346542D01*
X45573492Y-26385208D01*
X45572511Y-27509858D01*
X44177000Y-27509858D01*
X44177000Y-17727000D01*
X86145631Y-17727000D01*
X85627011Y-17941290D01*
X85627011Y-17941290D01*
G37*
X85627011Y-17941290D02*
X84943689Y-18623420D01*
X84573422Y-19515122D01*
X84572579Y-20480642D01*
X84941290Y-21372989D01*
X85623420Y-22056311D01*
X86515122Y-22426578D01*
X87480642Y-22427421D01*
X88372989Y-22058710D01*
X89056311Y-21376580D01*
X89426578Y-20484878D01*
X89427421Y-19519358D01*
X89058710Y-18627011D01*
X88376580Y-17943689D01*
X87854735Y-17727000D01*
X117545631Y-17727000D01*
X117027011Y-17941290D01*
X116343689Y-18623420D01*
X115973422Y-19515122D01*
X115972579Y-20480642D01*
X116341290Y-21372989D01*
X117023420Y-22056311D01*
X117915122Y-22426578D01*
X118880642Y-22427421D01*
X119772989Y-22058710D01*
X120456311Y-21376580D01*
X120826578Y-20484878D01*
X120827421Y-19519358D01*
X120458710Y-18627011D01*
X119776580Y-17943689D01*
X119254735Y-17727000D01*
X121923000Y-17727000D01*
X121923000Y-69223000D01*
X99926883Y-69223000D01*
X99440915Y-68046868D01*
X98309091Y-66913066D01*
X96829534Y-66298700D01*
X95227494Y-66297302D01*
X93746868Y-66909085D01*
X92613066Y-68040909D01*
X92122219Y-69223000D01*
X88477000Y-69223000D01*
X88477000Y-65750880D01*
X89963940Y-64263940D01*
X90880239Y-62892603D01*
X91202000Y-61275000D01*
X90880239Y-59657397D01*
X89963940Y-58286060D01*
X88802273Y-57509858D01*
X115572511Y-57509858D01*
X116001989Y-58549275D01*
X116796542Y-59345216D01*
X117835208Y-59776508D01*
X118959858Y-59777489D01*
X119999275Y-59348011D01*
X120795216Y-58553458D01*
X121226508Y-57514792D01*
X121227489Y-56390142D01*
X120798011Y-55350725D01*
X120003458Y-54554784D01*
X118964792Y-54123492D01*
X117840142Y-54122511D01*
X116800725Y-54551989D01*
X116004784Y-55346542D01*
X115573492Y-56385208D01*
X115572511Y-57509858D01*
X88802273Y-57509858D01*
X88592603Y-57369761D01*
X86975000Y-57048000D01*
X85427000Y-57355916D01*
X85427000Y-50550000D01*
X85219419Y-49506422D01*
X84628280Y-48621720D01*
X83743578Y-48030581D01*
X82700000Y-47823000D01*
X81656422Y-48030581D01*
X80771720Y-48621720D01*
X80180581Y-49506422D01*
X79973000Y-50550000D01*
X79973000Y-58523000D01*
X76100000Y-58523000D01*
X75056422Y-58730581D01*
X74171720Y-59321720D01*
X73580581Y-60206422D01*
X73373000Y-61250000D01*
X73580581Y-62293578D01*
X74171720Y-63178280D01*
X75056422Y-63769419D01*
X76100000Y-63977000D01*
X80027575Y-63977000D01*
X80023000Y-64000000D01*
X80023000Y-69223000D01*
X78827000Y-69223000D01*
X78827000Y-68750000D01*
X78619419Y-67706422D01*
X78028280Y-66821720D01*
X77143578Y-66230581D01*
X76100000Y-66023000D01*
X75056422Y-66230581D01*
X74171720Y-66821720D01*
X73580581Y-67706422D01*
X73373000Y-68750000D01*
X73373000Y-69223000D01*
X73300000Y-69223000D01*
X73250590Y-69233006D01*
X73208965Y-69261447D01*
X73181685Y-69303841D01*
X73173000Y-69350000D01*
X73173000Y-79520440D01*
X72970440Y-79723000D01*
X62719621Y-79723000D01*
X62876613Y-79344921D01*
X62877386Y-78458966D01*
X62539060Y-77640154D01*
X61913142Y-77013142D01*
X61094921Y-76673387D01*
X60208966Y-76672614D01*
X59390154Y-77010940D01*
X58763142Y-77636858D01*
X58423387Y-78455079D01*
X58422614Y-79341034D01*
X58580439Y-79723000D01*
X53670986Y-79723000D01*
X54114724Y-79426503D01*
X54651671Y-78622907D01*
X54840221Y-77675000D01*
X54651671Y-76727093D01*
X54114724Y-75923497D01*
X53311128Y-75386550D01*
X52363221Y-75198000D01*
X50736779Y-75198000D01*
X49788872Y-75386550D01*
X48985276Y-75923497D01*
X48448329Y-76727093D01*
X48259779Y-77675000D01*
X48448329Y-78622907D01*
X48985276Y-79426503D01*
X49429014Y-79723000D01*
X44177000Y-79723000D01*
X44177000Y-60001426D01*
X48072649Y-60001426D01*
X48380591Y-60746703D01*
X48950298Y-61317405D01*
X49695036Y-61626647D01*
X50501426Y-61627351D01*
X51246703Y-61319409D01*
X51817405Y-60749702D01*
X52126647Y-60004964D01*
X52127351Y-59198574D01*
X51819409Y-58453297D01*
X51249702Y-57882595D01*
X50504964Y-57573353D01*
X49698574Y-57572649D01*
X48953297Y-57880591D01*
X48382595Y-58450298D01*
X48073353Y-59195036D01*
X48072649Y-60001426D01*
X44177000Y-60001426D01*
X44177000Y-55001426D01*
X48072649Y-55001426D01*
X48380591Y-55746703D01*
X48950298Y-56317405D01*
X49695036Y-56626647D01*
X50501426Y-56627351D01*
X51246703Y-56319409D01*
X51817405Y-55749702D01*
X52126647Y-55004964D01*
X52126650Y-55001426D01*
X52672649Y-55001426D01*
X52980591Y-55746703D01*
X53550298Y-56317405D01*
X54295036Y-56626647D01*
X55101426Y-56627351D01*
X55846703Y-56319409D01*
X56417405Y-55749702D01*
X56504051Y-55541034D01*
X58422614Y-55541034D01*
X58760940Y-56359846D01*
X59386858Y-56986858D01*
X60205079Y-57326613D01*
X61091034Y-57327386D01*
X61909846Y-56989060D01*
X62536858Y-56363142D01*
X62876613Y-55544921D01*
X62877386Y-54658966D01*
X62539060Y-53840154D01*
X61913142Y-53213142D01*
X61094921Y-52873387D01*
X60208966Y-52872614D01*
X59390154Y-53210940D01*
X58763142Y-53836858D01*
X58423387Y-54655079D01*
X58422614Y-55541034D01*
X56504051Y-55541034D01*
X56726647Y-55004964D01*
X56727351Y-54198574D01*
X56419409Y-53453297D01*
X55849702Y-52882595D01*
X55104964Y-52573353D01*
X54298574Y-52572649D01*
X53553297Y-52880591D01*
X52982595Y-53450298D01*
X52673353Y-54195036D01*
X52672649Y-55001426D01*
X52126650Y-55001426D01*
X52127351Y-54198574D01*
X51819409Y-53453297D01*
X51249702Y-52882595D01*
X50504964Y-52573353D01*
X49698574Y-52572649D01*
X48953297Y-52880591D01*
X48382595Y-53450298D01*
X48073353Y-54195036D01*
X48072649Y-55001426D01*
X44177000Y-55001426D01*
X44177000Y-50353975D01*
X44380591Y-50846703D01*
X44950298Y-51417405D01*
X45695036Y-51726647D01*
X46501426Y-51727351D01*
X47246703Y-51419409D01*
X47817405Y-50849702D01*
X48126647Y-50104964D01*
X48127351Y-49298574D01*
X47819409Y-48553297D01*
X47249702Y-47982595D01*
X46504964Y-47673353D01*
X45698574Y-47672649D01*
X44953297Y-47980591D01*
X44382595Y-48550298D01*
X44177000Y-49045426D01*
X44177000Y-27509858D01*
X45572511Y-27509858D01*
X46001989Y-28549275D01*
X46796542Y-29345216D01*
X47835208Y-29776508D01*
X48959858Y-29777489D01*
X49999275Y-29348011D01*
X50795216Y-28553458D01*
X51004270Y-28050000D01*
X64698962Y-28050000D01*
X64698962Y-32050000D01*
X64784519Y-32504699D01*
X65053246Y-32922312D01*
X65463276Y-33202474D01*
X65950000Y-33301038D01*
X69950000Y-33301038D01*
X70404699Y-33215481D01*
X70822312Y-32946754D01*
X71102474Y-32536724D01*
X71201038Y-32050000D01*
X71201038Y-28050000D01*
X101948962Y-28050000D01*
X101948962Y-32050000D01*
X102034519Y-32504699D01*
X102303246Y-32922312D01*
X102713276Y-33202474D01*
X103200000Y-33301038D01*
X107200000Y-33301038D01*
X107654699Y-33215481D01*
X108072312Y-32946754D01*
X108352474Y-32536724D01*
X108451038Y-32050000D01*
X108451038Y-28050000D01*
X108365481Y-27595301D01*
X108096754Y-27177688D01*
X107686724Y-26897526D01*
X107200000Y-26798962D01*
X103200000Y-26798962D01*
X102745301Y-26884519D01*
X102327688Y-27153246D01*
X102047526Y-27563276D01*
X101948962Y-28050000D01*
X71201038Y-28050000D01*
X71115481Y-27595301D01*
X70846754Y-27177688D01*
X70436724Y-26897526D01*
X69950000Y-26798962D01*
X65950000Y-26798962D01*
X65495301Y-26884519D01*
X65077688Y-27153246D01*
X64797526Y-27563276D01*
X64698962Y-28050000D01*
X51004270Y-28050000D01*
X51226508Y-27514792D01*
X51227489Y-26390142D01*
X50798011Y-25350725D01*
X50003458Y-24554784D01*
X48964792Y-24123492D01*
X47840142Y-24122511D01*
X46800725Y-24551989D01*
X46004784Y-25346542D01*
X45573492Y-26385208D01*
X45572511Y-27509858D01*
X44177000Y-27509858D01*
X44177000Y-17727000D01*
X86145631Y-17727000D01*
X85627011Y-17941290D01*
G36*
X172523000Y-81850000D02*
X172533006Y-81899410D01*
X172561447Y-81941035D01*
X172603841Y-81968315D01*
X172650000Y-81977000D01*
X184038855Y-81977000D01*
X183923387Y-82255079D01*
X183922614Y-83141034D01*
X184260940Y-83959846D01*
X184886858Y-84586858D01*
X185705079Y-84926613D01*
X186591034Y-84927386D01*
X187409846Y-84589060D01*
X188036858Y-83963142D01*
X188376613Y-83144921D01*
X188377386Y-82258966D01*
X188260880Y-81977000D01*
X193129014Y-81977000D01*
X192685276Y-82273497D01*
X192148329Y-83077093D01*
X191959779Y-84025000D01*
X192148329Y-84972907D01*
X192685276Y-85776503D01*
X193488872Y-86313450D01*
X194436779Y-86502000D01*
X196063221Y-86502000D01*
X197011128Y-86313450D01*
X197814724Y-85776503D01*
X198351671Y-84972907D01*
X198540221Y-84025000D01*
X198351671Y-83077093D01*
X197814724Y-82273497D01*
X197370986Y-81977000D01*
X202623000Y-81977000D01*
X202623000Y-111347445D01*
X202572704Y-111094590D01*
X202133305Y-110436984D01*
X201475699Y-109997585D01*
X200700000Y-109843289D01*
X199924301Y-109997585D01*
X199266695Y-110436984D01*
X198827296Y-111094590D01*
X198673000Y-111870289D01*
X198673000Y-111949711D01*
X198827296Y-112725410D01*
X199266695Y-113383016D01*
X199924301Y-113822415D01*
X200700000Y-113976711D01*
X201475699Y-113822415D01*
X202133305Y-113383016D01*
X202572704Y-112725410D01*
X202623000Y-112472555D01*
X202623000Y-130073000D01*
X163132319Y-130073000D01*
X161967603Y-129294761D01*
X160350000Y-128973000D01*
X156650880Y-128973000D01*
X151377000Y-123699120D01*
X151377000Y-119882452D01*
X166223000Y-119882452D01*
X166223000Y-119977548D01*
X166407744Y-120906321D01*
X166933852Y-121693696D01*
X167721227Y-122219804D01*
X168650000Y-122404548D01*
X169578773Y-122219804D01*
X170366148Y-121693696D01*
X170892256Y-120906321D01*
X171077000Y-119977548D01*
X171077000Y-119882452D01*
X170892256Y-118953679D01*
X170366148Y-118166304D01*
X169578773Y-117640196D01*
X168650000Y-117455452D01*
X167721227Y-117640196D01*
X166933852Y-118166304D01*
X166407744Y-118953679D01*
X166223000Y-119882452D01*
X151377000Y-119882452D01*
X151377000Y-110739074D01*
X152972441Y-110739074D01*
X153462687Y-111925561D01*
X154369664Y-112834123D01*
X155555294Y-113326439D01*
X156839074Y-113327559D01*
X158025561Y-112837313D01*
X158934123Y-111930336D01*
X159426439Y-110744706D01*
X159427559Y-109460926D01*
X158937313Y-108274439D01*
X158030336Y-107365877D01*
X156844706Y-106873561D01*
X155560926Y-106872441D01*
X154374439Y-107362687D01*
X153465877Y-108269664D01*
X152973561Y-109455294D01*
X152972441Y-110739074D01*
X151377000Y-110739074D01*
X151377000Y-102075000D01*
X177623962Y-102075000D01*
X177623962Y-103825000D01*
X177709519Y-104279699D01*
X177861723Y-104516230D01*
X177648365Y-105030052D01*
X177647636Y-105866279D01*
X177966972Y-106639132D01*
X178557758Y-107230950D01*
X179330052Y-107551635D01*
X180166279Y-107552364D01*
X180939132Y-107233028D01*
X181181548Y-106991034D01*
X183922614Y-106991034D01*
X184260940Y-107809846D01*
X184886858Y-108436858D01*
X185705079Y-108776613D01*
X186591034Y-108777386D01*
X187409846Y-108439060D01*
X188036858Y-107813142D01*
X188187055Y-107451426D01*
X190072649Y-107451426D01*
X190380591Y-108196703D01*
X190950298Y-108767405D01*
X191695036Y-109076647D01*
X192501426Y-109077351D01*
X193246703Y-108769409D01*
X193817405Y-108199702D01*
X194126647Y-107454964D01*
X194126650Y-107451426D01*
X194672649Y-107451426D01*
X194980591Y-108196703D01*
X195550298Y-108767405D01*
X196295036Y-109076647D01*
X197101426Y-109077351D01*
X197846703Y-108769409D01*
X198417405Y-108199702D01*
X198726647Y-107454964D01*
X198727351Y-106648574D01*
X198419409Y-105903297D01*
X197849702Y-105332595D01*
X197104964Y-105023353D01*
X196298574Y-105022649D01*
X195553297Y-105330591D01*
X194982595Y-105900298D01*
X194673353Y-106645036D01*
X194672649Y-107451426D01*
X194126650Y-107451426D01*
X194127351Y-106648574D01*
X193819409Y-105903297D01*
X193249702Y-105332595D01*
X192504964Y-105023353D01*
X191698574Y-105022649D01*
X190953297Y-105330591D01*
X190382595Y-105900298D01*
X190073353Y-106645036D01*
X190072649Y-107451426D01*
X188187055Y-107451426D01*
X188376613Y-106994921D01*
X188377386Y-106108966D01*
X188039060Y-105290154D01*
X187413142Y-104663142D01*
X186594921Y-104323387D01*
X185708966Y-104322614D01*
X184890154Y-104660940D01*
X184263142Y-105286858D01*
X183923387Y-106105079D01*
X183922614Y-106991034D01*
X181181548Y-106991034D01*
X181530950Y-106642242D01*
X181851635Y-105869948D01*
X181852364Y-105033721D01*
X181638240Y-104515500D01*
X181777474Y-104311724D01*
X181876038Y-103825000D01*
X181876038Y-102451426D01*
X194672649Y-102451426D01*
X194980591Y-103196703D01*
X195550298Y-103767405D01*
X196295036Y-104076647D01*
X197101426Y-104077351D01*
X197846703Y-103769409D01*
X198417405Y-103199702D01*
X198726647Y-102454964D01*
X198727351Y-101648574D01*
X198419409Y-100903297D01*
X197849702Y-100332595D01*
X197104964Y-100023353D01*
X196298574Y-100022649D01*
X195553297Y-100330591D01*
X194982595Y-100900298D01*
X194673353Y-101645036D01*
X194672649Y-102451426D01*
X181876038Y-102451426D01*
X181876038Y-102075000D01*
X181790481Y-101620301D01*
X181521754Y-101202688D01*
X181111724Y-100922526D01*
X180625000Y-100823962D01*
X178875000Y-100823962D01*
X178420301Y-100909519D01*
X178002688Y-101178246D01*
X177722526Y-101588276D01*
X177623962Y-102075000D01*
X151377000Y-102075000D01*
X151377000Y-98720289D01*
X178923000Y-98720289D01*
X178923000Y-98799711D01*
X179077296Y-99575410D01*
X179516695Y-100233016D01*
X180174301Y-100672415D01*
X180950000Y-100826711D01*
X181725699Y-100672415D01*
X182383305Y-100233016D01*
X182822704Y-99575410D01*
X182977000Y-98799711D01*
X182977000Y-98720289D01*
X182822704Y-97944590D01*
X182383305Y-97286984D01*
X181725699Y-96847585D01*
X180950000Y-96693289D01*
X180174301Y-96847585D01*
X179516695Y-97286984D01*
X179077296Y-97944590D01*
X178923000Y-98720289D01*
X151377000Y-98720289D01*
X151377000Y-86457489D01*
X152105239Y-85367603D01*
X152183749Y-84972907D01*
X152427000Y-83750000D01*
X152427000Y-78200000D01*
X152105239Y-76582397D01*
X151188940Y-75211060D01*
X150329493Y-74351613D01*
X151572506Y-74352698D01*
X153053132Y-73740915D01*
X154186934Y-72609091D01*
X154801300Y-71129534D01*
X154802698Y-69527494D01*
X154190915Y-68046868D01*
X153059091Y-66913066D01*
X151579534Y-66298700D01*
X150280314Y-66297566D01*
X150950880Y-65627000D01*
X172523000Y-65627000D01*
X172523000Y-81850000D01*
X172523000Y-81850000D01*
G37*
X172523000Y-81850000D02*
X172533006Y-81899410D01*
X172561447Y-81941035D01*
X172603841Y-81968315D01*
X172650000Y-81977000D01*
X184038855Y-81977000D01*
X183923387Y-82255079D01*
X183922614Y-83141034D01*
X184260940Y-83959846D01*
X184886858Y-84586858D01*
X185705079Y-84926613D01*
X186591034Y-84927386D01*
X187409846Y-84589060D01*
X188036858Y-83963142D01*
X188376613Y-83144921D01*
X188377386Y-82258966D01*
X188260880Y-81977000D01*
X193129014Y-81977000D01*
X192685276Y-82273497D01*
X192148329Y-83077093D01*
X191959779Y-84025000D01*
X192148329Y-84972907D01*
X192685276Y-85776503D01*
X193488872Y-86313450D01*
X194436779Y-86502000D01*
X196063221Y-86502000D01*
X197011128Y-86313450D01*
X197814724Y-85776503D01*
X198351671Y-84972907D01*
X198540221Y-84025000D01*
X198351671Y-83077093D01*
X197814724Y-82273497D01*
X197370986Y-81977000D01*
X202623000Y-81977000D01*
X202623000Y-111347445D01*
X202572704Y-111094590D01*
X202133305Y-110436984D01*
X201475699Y-109997585D01*
X200700000Y-109843289D01*
X199924301Y-109997585D01*
X199266695Y-110436984D01*
X198827296Y-111094590D01*
X198673000Y-111870289D01*
X198673000Y-111949711D01*
X198827296Y-112725410D01*
X199266695Y-113383016D01*
X199924301Y-113822415D01*
X200700000Y-113976711D01*
X201475699Y-113822415D01*
X202133305Y-113383016D01*
X202572704Y-112725410D01*
X202623000Y-112472555D01*
X202623000Y-130073000D01*
X163132319Y-130073000D01*
X161967603Y-129294761D01*
X160350000Y-128973000D01*
X156650880Y-128973000D01*
X151377000Y-123699120D01*
X151377000Y-119882452D01*
X166223000Y-119882452D01*
X166223000Y-119977548D01*
X166407744Y-120906321D01*
X166933852Y-121693696D01*
X167721227Y-122219804D01*
X168650000Y-122404548D01*
X169578773Y-122219804D01*
X170366148Y-121693696D01*
X170892256Y-120906321D01*
X171077000Y-119977548D01*
X171077000Y-119882452D01*
X170892256Y-118953679D01*
X170366148Y-118166304D01*
X169578773Y-117640196D01*
X168650000Y-117455452D01*
X167721227Y-117640196D01*
X166933852Y-118166304D01*
X166407744Y-118953679D01*
X166223000Y-119882452D01*
X151377000Y-119882452D01*
X151377000Y-110739074D01*
X152972441Y-110739074D01*
X153462687Y-111925561D01*
X154369664Y-112834123D01*
X155555294Y-113326439D01*
X156839074Y-113327559D01*
X158025561Y-112837313D01*
X158934123Y-111930336D01*
X159426439Y-110744706D01*
X159427559Y-109460926D01*
X158937313Y-108274439D01*
X158030336Y-107365877D01*
X156844706Y-106873561D01*
X155560926Y-106872441D01*
X154374439Y-107362687D01*
X153465877Y-108269664D01*
X152973561Y-109455294D01*
X152972441Y-110739074D01*
X151377000Y-110739074D01*
X151377000Y-102075000D01*
X177623962Y-102075000D01*
X177623962Y-103825000D01*
X177709519Y-104279699D01*
X177861723Y-104516230D01*
X177648365Y-105030052D01*
X177647636Y-105866279D01*
X177966972Y-106639132D01*
X178557758Y-107230950D01*
X179330052Y-107551635D01*
X180166279Y-107552364D01*
X180939132Y-107233028D01*
X181181548Y-106991034D01*
X183922614Y-106991034D01*
X184260940Y-107809846D01*
X184886858Y-108436858D01*
X185705079Y-108776613D01*
X186591034Y-108777386D01*
X187409846Y-108439060D01*
X188036858Y-107813142D01*
X188187055Y-107451426D01*
X190072649Y-107451426D01*
X190380591Y-108196703D01*
X190950298Y-108767405D01*
X191695036Y-109076647D01*
X192501426Y-109077351D01*
X193246703Y-108769409D01*
X193817405Y-108199702D01*
X194126647Y-107454964D01*
X194126650Y-107451426D01*
X194672649Y-107451426D01*
X194980591Y-108196703D01*
X195550298Y-108767405D01*
X196295036Y-109076647D01*
X197101426Y-109077351D01*
X197846703Y-108769409D01*
X198417405Y-108199702D01*
X198726647Y-107454964D01*
X198727351Y-106648574D01*
X198419409Y-105903297D01*
X197849702Y-105332595D01*
X197104964Y-105023353D01*
X196298574Y-105022649D01*
X195553297Y-105330591D01*
X194982595Y-105900298D01*
X194673353Y-106645036D01*
X194672649Y-107451426D01*
X194126650Y-107451426D01*
X194127351Y-106648574D01*
X193819409Y-105903297D01*
X193249702Y-105332595D01*
X192504964Y-105023353D01*
X191698574Y-105022649D01*
X190953297Y-105330591D01*
X190382595Y-105900298D01*
X190073353Y-106645036D01*
X190072649Y-107451426D01*
X188187055Y-107451426D01*
X188376613Y-106994921D01*
X188377386Y-106108966D01*
X188039060Y-105290154D01*
X187413142Y-104663142D01*
X186594921Y-104323387D01*
X185708966Y-104322614D01*
X184890154Y-104660940D01*
X184263142Y-105286858D01*
X183923387Y-106105079D01*
X183922614Y-106991034D01*
X181181548Y-106991034D01*
X181530950Y-106642242D01*
X181851635Y-105869948D01*
X181852364Y-105033721D01*
X181638240Y-104515500D01*
X181777474Y-104311724D01*
X181876038Y-103825000D01*
X181876038Y-102451426D01*
X194672649Y-102451426D01*
X194980591Y-103196703D01*
X195550298Y-103767405D01*
X196295036Y-104076647D01*
X197101426Y-104077351D01*
X197846703Y-103769409D01*
X198417405Y-103199702D01*
X198726647Y-102454964D01*
X198727351Y-101648574D01*
X198419409Y-100903297D01*
X197849702Y-100332595D01*
X197104964Y-100023353D01*
X196298574Y-100022649D01*
X195553297Y-100330591D01*
X194982595Y-100900298D01*
X194673353Y-101645036D01*
X194672649Y-102451426D01*
X181876038Y-102451426D01*
X181876038Y-102075000D01*
X181790481Y-101620301D01*
X181521754Y-101202688D01*
X181111724Y-100922526D01*
X180625000Y-100823962D01*
X178875000Y-100823962D01*
X178420301Y-100909519D01*
X178002688Y-101178246D01*
X177722526Y-101588276D01*
X177623962Y-102075000D01*
X151377000Y-102075000D01*
X151377000Y-98720289D01*
X178923000Y-98720289D01*
X178923000Y-98799711D01*
X179077296Y-99575410D01*
X179516695Y-100233016D01*
X180174301Y-100672415D01*
X180950000Y-100826711D01*
X181725699Y-100672415D01*
X182383305Y-100233016D01*
X182822704Y-99575410D01*
X182977000Y-98799711D01*
X182977000Y-98720289D01*
X182822704Y-97944590D01*
X182383305Y-97286984D01*
X181725699Y-96847585D01*
X180950000Y-96693289D01*
X180174301Y-96847585D01*
X179516695Y-97286984D01*
X179077296Y-97944590D01*
X178923000Y-98720289D01*
X151377000Y-98720289D01*
X151377000Y-86457489D01*
X152105239Y-85367603D01*
X152183749Y-84972907D01*
X152427000Y-83750000D01*
X152427000Y-78200000D01*
X152105239Y-76582397D01*
X151188940Y-75211060D01*
X150329493Y-74351613D01*
X151572506Y-74352698D01*
X153053132Y-73740915D01*
X154186934Y-72609091D01*
X154801300Y-71129534D01*
X154802698Y-69527494D01*
X154190915Y-68046868D01*
X153059091Y-66913066D01*
X151579534Y-66298700D01*
X150280314Y-66297566D01*
X150950880Y-65627000D01*
X172523000Y-65627000D01*
X172523000Y-81850000D01*
G36*
X127027011Y-17941290D02*
X126343689Y-18623420D01*
X125973422Y-19515122D01*
X125972579Y-20480642D01*
X126341290Y-21372989D01*
X127023420Y-22056311D01*
X127915122Y-22426578D01*
X128880642Y-22427421D01*
X129772989Y-22058710D01*
X130456311Y-21376580D01*
X130826578Y-20484878D01*
X130827421Y-19519358D01*
X130458710Y-18627011D01*
X129776580Y-17943689D01*
X129254735Y-17727000D01*
X158945631Y-17727000D01*
X158427011Y-17941290D01*
X157743689Y-18623420D01*
X157373422Y-19515122D01*
X157372579Y-20480642D01*
X157741290Y-21372989D01*
X158423420Y-22056311D01*
X159315122Y-22426578D01*
X160280642Y-22427421D01*
X161172989Y-22058710D01*
X161856311Y-21376580D01*
X162226578Y-20484878D01*
X162227421Y-19519358D01*
X161858710Y-18627011D01*
X161176580Y-17943689D01*
X160654735Y-17727000D01*
X202623000Y-17727000D01*
X202623000Y-49046025D01*
X202419409Y-48553297D01*
X201849702Y-47982595D01*
X201104964Y-47673353D01*
X200298574Y-47672649D01*
X199553297Y-47980591D01*
X198982595Y-48550298D01*
X198673353Y-49295036D01*
X198672649Y-50101426D01*
X198980591Y-50846703D01*
X199550298Y-51417405D01*
X200295036Y-51726647D01*
X201101426Y-51727351D01*
X201846703Y-51419409D01*
X202417405Y-50849702D01*
X202623000Y-50354574D01*
X202623000Y-79723000D01*
X197370986Y-79723000D01*
X197814724Y-79426503D01*
X198351671Y-78622907D01*
X198540221Y-77675000D01*
X198351671Y-76727093D01*
X197814724Y-75923497D01*
X197011128Y-75386550D01*
X196063221Y-75198000D01*
X194436779Y-75198000D01*
X193488872Y-75386550D01*
X192685276Y-75923497D01*
X192148329Y-76727093D01*
X191959779Y-77675000D01*
X192148329Y-78622907D01*
X192685276Y-79426503D01*
X193129014Y-79723000D01*
X188219621Y-79723000D01*
X188376613Y-79344921D01*
X188377386Y-78458966D01*
X188039060Y-77640154D01*
X187413142Y-77013142D01*
X186594921Y-76673387D01*
X185708966Y-76672614D01*
X184890154Y-77010940D01*
X184263142Y-77636858D01*
X183923387Y-78455079D01*
X183922614Y-79341034D01*
X184080439Y-79723000D01*
X174777000Y-79723000D01*
X174777000Y-63500000D01*
X174766994Y-63450590D01*
X174738553Y-63408965D01*
X174696159Y-63381685D01*
X174650000Y-63373000D01*
X172336861Y-63373000D01*
X172628280Y-63178280D01*
X173219419Y-62293578D01*
X173427000Y-61250000D01*
X173219419Y-60206422D01*
X173082446Y-60001426D01*
X194672649Y-60001426D01*
X194980591Y-60746703D01*
X195550298Y-61317405D01*
X196295036Y-61626647D01*
X197101426Y-61627351D01*
X197846703Y-61319409D01*
X198417405Y-60749702D01*
X198726647Y-60004964D01*
X198727351Y-59198574D01*
X198419409Y-58453297D01*
X197849702Y-57882595D01*
X197104964Y-57573353D01*
X196298574Y-57572649D01*
X195553297Y-57880591D01*
X194982595Y-58450298D01*
X194673353Y-59195036D01*
X194672649Y-60001426D01*
X173082446Y-60001426D01*
X172628280Y-59321720D01*
X171743578Y-58730581D01*
X170700000Y-58523000D01*
X166299079Y-58523000D01*
X166619419Y-58043578D01*
X166827000Y-57000000D01*
X166827000Y-55541034D01*
X183922614Y-55541034D01*
X184260940Y-56359846D01*
X184886858Y-56986858D01*
X185705079Y-57326613D01*
X186591034Y-57327386D01*
X187409846Y-56989060D01*
X188036858Y-56363142D01*
X188376613Y-55544921D01*
X188377087Y-55001426D01*
X190072649Y-55001426D01*
X190380591Y-55746703D01*
X190950298Y-56317405D01*
X191695036Y-56626647D01*
X192501426Y-56627351D01*
X193246703Y-56319409D01*
X193817405Y-55749702D01*
X194126647Y-55004964D01*
X194126650Y-55001426D01*
X194672649Y-55001426D01*
X194980591Y-55746703D01*
X195550298Y-56317405D01*
X196295036Y-56626647D01*
X197101426Y-56627351D01*
X197846703Y-56319409D01*
X198417405Y-55749702D01*
X198726647Y-55004964D01*
X198727351Y-54198574D01*
X198419409Y-53453297D01*
X197849702Y-52882595D01*
X197104964Y-52573353D01*
X196298574Y-52572649D01*
X195553297Y-52880591D01*
X194982595Y-53450298D01*
X194673353Y-54195036D01*
X194672649Y-55001426D01*
X194126650Y-55001426D01*
X194127351Y-54198574D01*
X193819409Y-53453297D01*
X193249702Y-52882595D01*
X192504964Y-52573353D01*
X191698574Y-52572649D01*
X190953297Y-52880591D01*
X190382595Y-53450298D01*
X190073353Y-54195036D01*
X190072649Y-55001426D01*
X188377087Y-55001426D01*
X188377386Y-54658966D01*
X188039060Y-53840154D01*
X187413142Y-53213142D01*
X186594921Y-52873387D01*
X185708966Y-52872614D01*
X184890154Y-53210940D01*
X184263142Y-53836858D01*
X183923387Y-54655079D01*
X183922614Y-55541034D01*
X166827000Y-55541034D01*
X166827000Y-50550000D01*
X166619419Y-49506422D01*
X166028280Y-48621720D01*
X165143578Y-48030581D01*
X164100000Y-47823000D01*
X163056422Y-48030581D01*
X162171720Y-48621720D01*
X161580581Y-49506422D01*
X161373000Y-50550000D01*
X161373000Y-55870440D01*
X160133980Y-57109460D01*
X159825000Y-57048000D01*
X149325000Y-57048000D01*
X147924317Y-57326613D01*
X147707397Y-57369761D01*
X146336060Y-58286060D01*
X140211060Y-64411060D01*
X139294761Y-65782397D01*
X138973000Y-67400000D01*
X138973000Y-69223000D01*
X124877000Y-69223000D01*
X124877000Y-28000000D01*
X138348962Y-28000000D01*
X138348962Y-32000000D01*
X138434519Y-32454699D01*
X138703246Y-32872312D01*
X139113276Y-33152474D01*
X139600000Y-33251038D01*
X143600000Y-33251038D01*
X144054699Y-33165481D01*
X144472312Y-32896754D01*
X144752474Y-32486724D01*
X144851038Y-32000000D01*
X144851038Y-28050000D01*
X175598962Y-28050000D01*
X175598962Y-32050000D01*
X175684519Y-32504699D01*
X175953246Y-32922312D01*
X176363276Y-33202474D01*
X176850000Y-33301038D01*
X180850000Y-33301038D01*
X181304699Y-33215481D01*
X181722312Y-32946754D01*
X182002474Y-32536724D01*
X182101038Y-32050000D01*
X182101038Y-28050000D01*
X182015481Y-27595301D01*
X181960500Y-27509858D01*
X195572511Y-27509858D01*
X196001989Y-28549275D01*
X196796542Y-29345216D01*
X197835208Y-29776508D01*
X198959858Y-29777489D01*
X199999275Y-29348011D01*
X200795216Y-28553458D01*
X201226508Y-27514792D01*
X201227489Y-26390142D01*
X200798011Y-25350725D01*
X200003458Y-24554784D01*
X198964792Y-24123492D01*
X197840142Y-24122511D01*
X196800725Y-24551989D01*
X196004784Y-25346542D01*
X195573492Y-26385208D01*
X195572511Y-27509858D01*
X181960500Y-27509858D01*
X181746754Y-27177688D01*
X181336724Y-26897526D01*
X180850000Y-26798962D01*
X176850000Y-26798962D01*
X176395301Y-26884519D01*
X175977688Y-27153246D01*
X175697526Y-27563276D01*
X175598962Y-28050000D01*
X144851038Y-28050000D01*
X144851038Y-28000000D01*
X144765481Y-27545301D01*
X144496754Y-27127688D01*
X144086724Y-26847526D01*
X143600000Y-26748962D01*
X139600000Y-26748962D01*
X139145301Y-26834519D01*
X138727688Y-27103246D01*
X138447526Y-27513276D01*
X138348962Y-28000000D01*
X124877000Y-28000000D01*
X124877000Y-17727000D01*
X127545631Y-17727000D01*
X127027011Y-17941290D01*
X127027011Y-17941290D01*
G37*
X127027011Y-17941290D02*
X126343689Y-18623420D01*
X125973422Y-19515122D01*
X125972579Y-20480642D01*
X126341290Y-21372989D01*
X127023420Y-22056311D01*
X127915122Y-22426578D01*
X128880642Y-22427421D01*
X129772989Y-22058710D01*
X130456311Y-21376580D01*
X130826578Y-20484878D01*
X130827421Y-19519358D01*
X130458710Y-18627011D01*
X129776580Y-17943689D01*
X129254735Y-17727000D01*
X158945631Y-17727000D01*
X158427011Y-17941290D01*
X157743689Y-18623420D01*
X157373422Y-19515122D01*
X157372579Y-20480642D01*
X157741290Y-21372989D01*
X158423420Y-22056311D01*
X159315122Y-22426578D01*
X160280642Y-22427421D01*
X161172989Y-22058710D01*
X161856311Y-21376580D01*
X162226578Y-20484878D01*
X162227421Y-19519358D01*
X161858710Y-18627011D01*
X161176580Y-17943689D01*
X160654735Y-17727000D01*
X202623000Y-17727000D01*
X202623000Y-49046025D01*
X202419409Y-48553297D01*
X201849702Y-47982595D01*
X201104964Y-47673353D01*
X200298574Y-47672649D01*
X199553297Y-47980591D01*
X198982595Y-48550298D01*
X198673353Y-49295036D01*
X198672649Y-50101426D01*
X198980591Y-50846703D01*
X199550298Y-51417405D01*
X200295036Y-51726647D01*
X201101426Y-51727351D01*
X201846703Y-51419409D01*
X202417405Y-50849702D01*
X202623000Y-50354574D01*
X202623000Y-79723000D01*
X197370986Y-79723000D01*
X197814724Y-79426503D01*
X198351671Y-78622907D01*
X198540221Y-77675000D01*
X198351671Y-76727093D01*
X197814724Y-75923497D01*
X197011128Y-75386550D01*
X196063221Y-75198000D01*
X194436779Y-75198000D01*
X193488872Y-75386550D01*
X192685276Y-75923497D01*
X192148329Y-76727093D01*
X191959779Y-77675000D01*
X192148329Y-78622907D01*
X192685276Y-79426503D01*
X193129014Y-79723000D01*
X188219621Y-79723000D01*
X188376613Y-79344921D01*
X188377386Y-78458966D01*
X188039060Y-77640154D01*
X187413142Y-77013142D01*
X186594921Y-76673387D01*
X185708966Y-76672614D01*
X184890154Y-77010940D01*
X184263142Y-77636858D01*
X183923387Y-78455079D01*
X183922614Y-79341034D01*
X184080439Y-79723000D01*
X174777000Y-79723000D01*
X174777000Y-63500000D01*
X174766994Y-63450590D01*
X174738553Y-63408965D01*
X174696159Y-63381685D01*
X174650000Y-63373000D01*
X172336861Y-63373000D01*
X172628280Y-63178280D01*
X173219419Y-62293578D01*
X173427000Y-61250000D01*
X173219419Y-60206422D01*
X173082446Y-60001426D01*
X194672649Y-60001426D01*
X194980591Y-60746703D01*
X195550298Y-61317405D01*
X196295036Y-61626647D01*
X197101426Y-61627351D01*
X197846703Y-61319409D01*
X198417405Y-60749702D01*
X198726647Y-60004964D01*
X198727351Y-59198574D01*
X198419409Y-58453297D01*
X197849702Y-57882595D01*
X197104964Y-57573353D01*
X196298574Y-57572649D01*
X195553297Y-57880591D01*
X194982595Y-58450298D01*
X194673353Y-59195036D01*
X194672649Y-60001426D01*
X173082446Y-60001426D01*
X172628280Y-59321720D01*
X171743578Y-58730581D01*
X170700000Y-58523000D01*
X166299079Y-58523000D01*
X166619419Y-58043578D01*
X166827000Y-57000000D01*
X166827000Y-55541034D01*
X183922614Y-55541034D01*
X184260940Y-56359846D01*
X184886858Y-56986858D01*
X185705079Y-57326613D01*
X186591034Y-57327386D01*
X187409846Y-56989060D01*
X188036858Y-56363142D01*
X188376613Y-55544921D01*
X188377087Y-55001426D01*
X190072649Y-55001426D01*
X190380591Y-55746703D01*
X190950298Y-56317405D01*
X191695036Y-56626647D01*
X192501426Y-56627351D01*
X193246703Y-56319409D01*
X193817405Y-55749702D01*
X194126647Y-55004964D01*
X194126650Y-55001426D01*
X194672649Y-55001426D01*
X194980591Y-55746703D01*
X195550298Y-56317405D01*
X196295036Y-56626647D01*
X197101426Y-56627351D01*
X197846703Y-56319409D01*
X198417405Y-55749702D01*
X198726647Y-55004964D01*
X198727351Y-54198574D01*
X198419409Y-53453297D01*
X197849702Y-52882595D01*
X197104964Y-52573353D01*
X196298574Y-52572649D01*
X195553297Y-52880591D01*
X194982595Y-53450298D01*
X194673353Y-54195036D01*
X194672649Y-55001426D01*
X194126650Y-55001426D01*
X194127351Y-54198574D01*
X193819409Y-53453297D01*
X193249702Y-52882595D01*
X192504964Y-52573353D01*
X191698574Y-52572649D01*
X190953297Y-52880591D01*
X190382595Y-53450298D01*
X190073353Y-54195036D01*
X190072649Y-55001426D01*
X188377087Y-55001426D01*
X188377386Y-54658966D01*
X188039060Y-53840154D01*
X187413142Y-53213142D01*
X186594921Y-52873387D01*
X185708966Y-52872614D01*
X184890154Y-53210940D01*
X184263142Y-53836858D01*
X183923387Y-54655079D01*
X183922614Y-55541034D01*
X166827000Y-55541034D01*
X166827000Y-50550000D01*
X166619419Y-49506422D01*
X166028280Y-48621720D01*
X165143578Y-48030581D01*
X164100000Y-47823000D01*
X163056422Y-48030581D01*
X162171720Y-48621720D01*
X161580581Y-49506422D01*
X161373000Y-50550000D01*
X161373000Y-55870440D01*
X160133980Y-57109460D01*
X159825000Y-57048000D01*
X149325000Y-57048000D01*
X147924317Y-57326613D01*
X147707397Y-57369761D01*
X146336060Y-58286060D01*
X140211060Y-64411060D01*
X139294761Y-65782397D01*
X138973000Y-67400000D01*
X138973000Y-69223000D01*
X124877000Y-69223000D01*
X124877000Y-28000000D01*
X138348962Y-28000000D01*
X138348962Y-32000000D01*
X138434519Y-32454699D01*
X138703246Y-32872312D01*
X139113276Y-33152474D01*
X139600000Y-33251038D01*
X143600000Y-33251038D01*
X144054699Y-33165481D01*
X144472312Y-32896754D01*
X144752474Y-32486724D01*
X144851038Y-32000000D01*
X144851038Y-28050000D01*
X175598962Y-28050000D01*
X175598962Y-32050000D01*
X175684519Y-32504699D01*
X175953246Y-32922312D01*
X176363276Y-33202474D01*
X176850000Y-33301038D01*
X180850000Y-33301038D01*
X181304699Y-33215481D01*
X181722312Y-32946754D01*
X182002474Y-32536724D01*
X182101038Y-32050000D01*
X182101038Y-28050000D01*
X182015481Y-27595301D01*
X181960500Y-27509858D01*
X195572511Y-27509858D01*
X196001989Y-28549275D01*
X196796542Y-29345216D01*
X197835208Y-29776508D01*
X198959858Y-29777489D01*
X199999275Y-29348011D01*
X200795216Y-28553458D01*
X201226508Y-27514792D01*
X201227489Y-26390142D01*
X200798011Y-25350725D01*
X200003458Y-24554784D01*
X198964792Y-24123492D01*
X197840142Y-24122511D01*
X196800725Y-24551989D01*
X196004784Y-25346542D01*
X195573492Y-26385208D01*
X195572511Y-27509858D01*
X181960500Y-27509858D01*
X181746754Y-27177688D01*
X181336724Y-26897526D01*
X180850000Y-26798962D01*
X176850000Y-26798962D01*
X176395301Y-26884519D01*
X175977688Y-27153246D01*
X175697526Y-27563276D01*
X175598962Y-28050000D01*
X144851038Y-28050000D01*
X144851038Y-28000000D01*
X144765481Y-27545301D01*
X144496754Y-27127688D01*
X144086724Y-26847526D01*
X143600000Y-26748962D01*
X139600000Y-26748962D01*
X139145301Y-26834519D01*
X138727688Y-27103246D01*
X138447526Y-27513276D01*
X138348962Y-28000000D01*
X124877000Y-28000000D01*
X124877000Y-17727000D01*
X127545631Y-17727000D01*
X127027011Y-17941290D01*
G36*
X140123000Y-139023000D02*
X124627000Y-139023000D01*
X124627000Y-127452606D01*
X135402606Y-116677000D01*
X140123000Y-116677000D01*
X140123000Y-139023000D01*
X140123000Y-139023000D01*
G37*
X140123000Y-139023000D02*
X124627000Y-139023000D01*
X124627000Y-127452606D01*
X135402606Y-116677000D01*
X140123000Y-116677000D01*
X140123000Y-139023000D01*
G36*
X111238934Y-116722792D02*
X111327003Y-117007180D01*
X111014448Y-117463655D01*
X110761280Y-118054339D01*
X110627665Y-118682949D01*
X110618693Y-119325539D01*
X110734704Y-119957634D01*
X110971280Y-120555158D01*
X111319410Y-121095350D01*
X111765834Y-121557636D01*
X112293548Y-121924407D01*
X112882452Y-122181692D01*
X113510113Y-122319692D01*
X114152625Y-122333151D01*
X114785514Y-122221556D01*
X115384675Y-121989157D01*
X115927285Y-121644806D01*
X116228427Y-121358033D01*
X122323000Y-127452606D01*
X122323000Y-132272957D01*
X122024328Y-132270872D01*
X121441217Y-132382106D01*
X120890817Y-132604482D01*
X120394093Y-132929530D01*
X119969964Y-133344868D01*
X119634585Y-133834676D01*
X119400731Y-134380298D01*
X119277310Y-134960951D01*
X119269021Y-135554518D01*
X119376182Y-136138391D01*
X119594710Y-136690330D01*
X119916282Y-137189312D01*
X120328649Y-137616330D01*
X120816104Y-137955120D01*
X121360080Y-138192777D01*
X121939857Y-138320250D01*
X122323000Y-138328276D01*
X122323000Y-143923000D01*
X96850000Y-143923000D01*
X96814619Y-143928028D01*
X96782039Y-143942714D01*
X96760197Y-143960197D01*
X89110197Y-151610197D01*
X89088734Y-151638771D01*
X89076082Y-151672193D01*
X89073000Y-151700000D01*
X89073000Y-155673000D01*
X80127000Y-155673000D01*
X80127000Y-151927000D01*
X81150000Y-151927000D01*
X81185381Y-151921972D01*
X81217961Y-151907286D01*
X81239803Y-151889803D01*
X84063418Y-149066188D01*
X84108899Y-149113286D01*
X84564147Y-149429691D01*
X85072182Y-149651646D01*
X85613652Y-149770696D01*
X86167934Y-149782307D01*
X86713915Y-149686036D01*
X87230798Y-149485550D01*
X87698897Y-149188486D01*
X88100380Y-148806158D01*
X88419956Y-148353130D01*
X88645452Y-147846658D01*
X88768279Y-147306031D01*
X88777122Y-146672798D01*
X88669437Y-146128953D01*
X88458171Y-145616382D01*
X88151369Y-145154608D01*
X88063491Y-145066115D01*
X95902606Y-137227000D01*
X98800000Y-137227000D01*
X99130365Y-137194607D01*
X99460894Y-137164527D01*
X99466826Y-137162781D01*
X99472984Y-137162199D01*
X99478909Y-137160433D01*
X99485065Y-137159829D01*
X99802892Y-137063871D01*
X100121237Y-136970177D01*
X100126717Y-136967312D01*
X100132645Y-136965545D01*
X100138113Y-136962662D01*
X100144035Y-136960874D01*
X100437132Y-136805032D01*
X100490752Y-136777000D01*
X105100000Y-136777000D01*
X105135381Y-136771972D01*
X105167961Y-136757286D01*
X105195160Y-136734105D01*
X105214823Y-136704264D01*
X105225395Y-136670127D01*
X105227000Y-136650000D01*
X105227000Y-136142768D01*
X105548897Y-135938486D01*
X105950380Y-135556158D01*
X106269956Y-135103130D01*
X106495452Y-134596658D01*
X106618279Y-134056031D01*
X106627122Y-133422798D01*
X106519437Y-132878953D01*
X106308171Y-132366382D01*
X106001369Y-131904608D01*
X105610717Y-131511219D01*
X105335435Y-131325539D01*
X110618693Y-131325539D01*
X110734704Y-131957634D01*
X110971280Y-132555158D01*
X111319410Y-133095350D01*
X111765834Y-133557636D01*
X112293548Y-133924407D01*
X112882452Y-134181692D01*
X113510113Y-134319692D01*
X114152625Y-134333151D01*
X114785514Y-134221556D01*
X115384675Y-133989157D01*
X115927285Y-133644806D01*
X116392676Y-133201620D01*
X116763122Y-132676479D01*
X117024512Y-132089387D01*
X117166891Y-131462704D01*
X117177141Y-130728674D01*
X117052315Y-130098260D01*
X116807419Y-129504098D01*
X116451781Y-128968819D01*
X115998945Y-128512811D01*
X115466162Y-128153444D01*
X114873724Y-127904406D01*
X114244197Y-127775183D01*
X113601560Y-127770696D01*
X112970290Y-127891117D01*
X112374433Y-128131859D01*
X111836684Y-128483752D01*
X111377526Y-128933393D01*
X111014448Y-129463655D01*
X110761280Y-130054339D01*
X110627665Y-130682949D01*
X110618693Y-131325539D01*
X105335435Y-131325539D01*
X105227000Y-131252399D01*
X105227000Y-116627000D01*
X111231295Y-116627000D01*
X111238934Y-116722792D01*
X111238934Y-116722792D01*
G37*
X111238934Y-116722792D02*
X111327003Y-117007180D01*
X111014448Y-117463655D01*
X110761280Y-118054339D01*
X110627665Y-118682949D01*
X110618693Y-119325539D01*
X110734704Y-119957634D01*
X110971280Y-120555158D01*
X111319410Y-121095350D01*
X111765834Y-121557636D01*
X112293548Y-121924407D01*
X112882452Y-122181692D01*
X113510113Y-122319692D01*
X114152625Y-122333151D01*
X114785514Y-122221556D01*
X115384675Y-121989157D01*
X115927285Y-121644806D01*
X116228427Y-121358033D01*
X122323000Y-127452606D01*
X122323000Y-132272957D01*
X122024328Y-132270872D01*
X121441217Y-132382106D01*
X120890817Y-132604482D01*
X120394093Y-132929530D01*
X119969964Y-133344868D01*
X119634585Y-133834676D01*
X119400731Y-134380298D01*
X119277310Y-134960951D01*
X119269021Y-135554518D01*
X119376182Y-136138391D01*
X119594710Y-136690330D01*
X119916282Y-137189312D01*
X120328649Y-137616330D01*
X120816104Y-137955120D01*
X121360080Y-138192777D01*
X121939857Y-138320250D01*
X122323000Y-138328276D01*
X122323000Y-143923000D01*
X96850000Y-143923000D01*
X96814619Y-143928028D01*
X96782039Y-143942714D01*
X96760197Y-143960197D01*
X89110197Y-151610197D01*
X89088734Y-151638771D01*
X89076082Y-151672193D01*
X89073000Y-151700000D01*
X89073000Y-155673000D01*
X80127000Y-155673000D01*
X80127000Y-151927000D01*
X81150000Y-151927000D01*
X81185381Y-151921972D01*
X81217961Y-151907286D01*
X81239803Y-151889803D01*
X84063418Y-149066188D01*
X84108899Y-149113286D01*
X84564147Y-149429691D01*
X85072182Y-149651646D01*
X85613652Y-149770696D01*
X86167934Y-149782307D01*
X86713915Y-149686036D01*
X87230798Y-149485550D01*
X87698897Y-149188486D01*
X88100380Y-148806158D01*
X88419956Y-148353130D01*
X88645452Y-147846658D01*
X88768279Y-147306031D01*
X88777122Y-146672798D01*
X88669437Y-146128953D01*
X88458171Y-145616382D01*
X88151369Y-145154608D01*
X88063491Y-145066115D01*
X95902606Y-137227000D01*
X98800000Y-137227000D01*
X99130365Y-137194607D01*
X99460894Y-137164527D01*
X99466826Y-137162781D01*
X99472984Y-137162199D01*
X99478909Y-137160433D01*
X99485065Y-137159829D01*
X99802892Y-137063871D01*
X100121237Y-136970177D01*
X100126717Y-136967312D01*
X100132645Y-136965545D01*
X100138113Y-136962662D01*
X100144035Y-136960874D01*
X100437132Y-136805032D01*
X100490752Y-136777000D01*
X105100000Y-136777000D01*
X105135381Y-136771972D01*
X105167961Y-136757286D01*
X105195160Y-136734105D01*
X105214823Y-136704264D01*
X105225395Y-136670127D01*
X105227000Y-136650000D01*
X105227000Y-136142768D01*
X105548897Y-135938486D01*
X105950380Y-135556158D01*
X106269956Y-135103130D01*
X106495452Y-134596658D01*
X106618279Y-134056031D01*
X106627122Y-133422798D01*
X106519437Y-132878953D01*
X106308171Y-132366382D01*
X106001369Y-131904608D01*
X105610717Y-131511219D01*
X105335435Y-131325539D01*
X110618693Y-131325539D01*
X110734704Y-131957634D01*
X110971280Y-132555158D01*
X111319410Y-133095350D01*
X111765834Y-133557636D01*
X112293548Y-133924407D01*
X112882452Y-134181692D01*
X113510113Y-134319692D01*
X114152625Y-134333151D01*
X114785514Y-134221556D01*
X115384675Y-133989157D01*
X115927285Y-133644806D01*
X116392676Y-133201620D01*
X116763122Y-132676479D01*
X117024512Y-132089387D01*
X117166891Y-131462704D01*
X117177141Y-130728674D01*
X117052315Y-130098260D01*
X116807419Y-129504098D01*
X116451781Y-128968819D01*
X115998945Y-128512811D01*
X115466162Y-128153444D01*
X114873724Y-127904406D01*
X114244197Y-127775183D01*
X113601560Y-127770696D01*
X112970290Y-127891117D01*
X112374433Y-128131859D01*
X111836684Y-128483752D01*
X111377526Y-128933393D01*
X111014448Y-129463655D01*
X110761280Y-130054339D01*
X110627665Y-130682949D01*
X110618693Y-131325539D01*
X105335435Y-131325539D01*
X105227000Y-131252399D01*
X105227000Y-116627000D01*
X111231295Y-116627000D01*
X111238934Y-116722792D01*
G36*
X104238193Y-154367799D02*
X104238193Y-155800000D01*
X104263934Y-156122792D01*
X104433481Y-156670282D01*
X104748843Y-157148862D01*
X105185049Y-157520637D01*
X105707559Y-157756168D01*
X106275000Y-157836807D01*
X108775000Y-157836807D01*
X109097792Y-157811066D01*
X109645282Y-157641519D01*
X110123862Y-157326157D01*
X110495637Y-156889951D01*
X110731168Y-156367441D01*
X110758232Y-156177000D01*
X111036012Y-156177000D01*
X111145517Y-156382949D01*
X111549737Y-156878571D01*
X112042525Y-157286241D01*
X112605111Y-157590431D01*
X113216068Y-157779553D01*
X113852122Y-157846405D01*
X114489049Y-157788440D01*
X115102586Y-157607866D01*
X115669365Y-157311562D01*
X116167797Y-156910812D01*
X116578897Y-156420882D01*
X116712973Y-156177000D01*
X117386012Y-156177000D01*
X117495517Y-156382949D01*
X117899737Y-156878571D01*
X118392525Y-157286241D01*
X118955111Y-157590431D01*
X119566068Y-157779553D01*
X120202122Y-157846405D01*
X120839049Y-157788440D01*
X121452586Y-157607866D01*
X122019365Y-157311562D01*
X122517797Y-156910812D01*
X122928897Y-156420882D01*
X123062973Y-156177000D01*
X123736012Y-156177000D01*
X123845517Y-156382949D01*
X124249737Y-156878571D01*
X124742525Y-157286241D01*
X125305111Y-157590431D01*
X125916068Y-157779553D01*
X126552122Y-157846405D01*
X127189049Y-157788440D01*
X127802586Y-157607866D01*
X128369365Y-157311562D01*
X128867797Y-156910812D01*
X129278897Y-156420882D01*
X129412973Y-156177000D01*
X130086012Y-156177000D01*
X130195517Y-156382949D01*
X130599737Y-156878571D01*
X131092525Y-157286241D01*
X131655111Y-157590431D01*
X132266068Y-157779553D01*
X132902122Y-157846405D01*
X133539049Y-157788440D01*
X134152586Y-157607866D01*
X134719365Y-157311562D01*
X135217797Y-156910812D01*
X135628897Y-156420882D01*
X135937007Y-155860433D01*
X136130390Y-155250812D01*
X136201681Y-154615239D01*
X136202000Y-154569485D01*
X136202000Y-153427606D01*
X137802606Y-151827000D01*
X153773000Y-151827000D01*
X153773000Y-160373000D01*
X92627000Y-160373000D01*
X92627000Y-151827000D01*
X101697394Y-151827000D01*
X104238193Y-154367799D01*
X104238193Y-154367799D01*
G37*
X104238193Y-154367799D02*
X104238193Y-155800000D01*
X104263934Y-156122792D01*
X104433481Y-156670282D01*
X104748843Y-157148862D01*
X105185049Y-157520637D01*
X105707559Y-157756168D01*
X106275000Y-157836807D01*
X108775000Y-157836807D01*
X109097792Y-157811066D01*
X109645282Y-157641519D01*
X110123862Y-157326157D01*
X110495637Y-156889951D01*
X110731168Y-156367441D01*
X110758232Y-156177000D01*
X111036012Y-156177000D01*
X111145517Y-156382949D01*
X111549737Y-156878571D01*
X112042525Y-157286241D01*
X112605111Y-157590431D01*
X113216068Y-157779553D01*
X113852122Y-157846405D01*
X114489049Y-157788440D01*
X115102586Y-157607866D01*
X115669365Y-157311562D01*
X116167797Y-156910812D01*
X116578897Y-156420882D01*
X116712973Y-156177000D01*
X117386012Y-156177000D01*
X117495517Y-156382949D01*
X117899737Y-156878571D01*
X118392525Y-157286241D01*
X118955111Y-157590431D01*
X119566068Y-157779553D01*
X120202122Y-157846405D01*
X120839049Y-157788440D01*
X121452586Y-157607866D01*
X122019365Y-157311562D01*
X122517797Y-156910812D01*
X122928897Y-156420882D01*
X123062973Y-156177000D01*
X123736012Y-156177000D01*
X123845517Y-156382949D01*
X124249737Y-156878571D01*
X124742525Y-157286241D01*
X125305111Y-157590431D01*
X125916068Y-157779553D01*
X126552122Y-157846405D01*
X127189049Y-157788440D01*
X127802586Y-157607866D01*
X128369365Y-157311562D01*
X128867797Y-156910812D01*
X129278897Y-156420882D01*
X129412973Y-156177000D01*
X130086012Y-156177000D01*
X130195517Y-156382949D01*
X130599737Y-156878571D01*
X131092525Y-157286241D01*
X131655111Y-157590431D01*
X132266068Y-157779553D01*
X132902122Y-157846405D01*
X133539049Y-157788440D01*
X134152586Y-157607866D01*
X134719365Y-157311562D01*
X135217797Y-156910812D01*
X135628897Y-156420882D01*
X135937007Y-155860433D01*
X136130390Y-155250812D01*
X136201681Y-154615239D01*
X136202000Y-154569485D01*
X136202000Y-153427606D01*
X137802606Y-151827000D01*
X153773000Y-151827000D01*
X153773000Y-160373000D01*
X92627000Y-160373000D01*
X92627000Y-151827000D01*
X101697394Y-151827000D01*
X104238193Y-154367799D01*
G36*
X146610567Y-136941790D02*
X146622355Y-136945530D01*
X146633233Y-136951411D01*
X146950273Y-137049552D01*
X147266695Y-137149927D01*
X147278986Y-137151306D01*
X147290798Y-137154962D01*
X147620887Y-137189656D01*
X147950755Y-137226656D01*
X147974500Y-137226822D01*
X147975377Y-137226914D01*
X147976255Y-137226834D01*
X148000000Y-137227000D01*
X151915892Y-137227000D01*
X152059911Y-137347846D01*
X152083077Y-137360581D01*
X152103502Y-137377359D01*
X152512756Y-137596799D01*
X152919654Y-137820493D01*
X152944847Y-137828485D01*
X152968147Y-137840978D01*
X153412241Y-137976751D01*
X153854828Y-138117148D01*
X153881097Y-138120095D01*
X153906376Y-138127823D01*
X154368330Y-138174746D01*
X154829812Y-138226510D01*
X154881485Y-138226871D01*
X154882452Y-138226969D01*
X154883353Y-138226884D01*
X154900000Y-138227000D01*
X155097394Y-138227000D01*
X160994211Y-144123817D01*
X160592542Y-144121012D01*
X160047959Y-144224897D01*
X159533925Y-144432580D01*
X159070020Y-144736151D01*
X158673914Y-145124047D01*
X158360694Y-145581492D01*
X158142291Y-146091064D01*
X158027024Y-146633353D01*
X158019284Y-147187702D01*
X158119364Y-147732997D01*
X158323454Y-148248468D01*
X158623778Y-148714481D01*
X159008899Y-149113286D01*
X159464147Y-149429691D01*
X159972182Y-149651646D01*
X160513652Y-149770696D01*
X161067934Y-149782307D01*
X161613915Y-149686036D01*
X162130798Y-149485550D01*
X162598897Y-149188486D01*
X163000380Y-148806158D01*
X163319956Y-148353130D01*
X163348944Y-148288021D01*
X163623778Y-148714481D01*
X164008899Y-149113286D01*
X164464147Y-149429691D01*
X164972182Y-149651646D01*
X165513652Y-149770696D01*
X166067934Y-149782307D01*
X166523000Y-149702067D01*
X166523000Y-155673000D01*
X157377000Y-155673000D01*
X157377000Y-150900000D01*
X157371972Y-150864619D01*
X157357286Y-150832039D01*
X157339803Y-150810197D01*
X151439803Y-144910197D01*
X151411229Y-144888734D01*
X151377807Y-144876082D01*
X151350000Y-144873000D01*
X142377000Y-144873000D01*
X142377000Y-136827000D01*
X146401764Y-136827000D01*
X146610567Y-136941790D01*
X146610567Y-136941790D01*
G37*
X146610567Y-136941790D02*
X146622355Y-136945530D01*
X146633233Y-136951411D01*
X146950273Y-137049552D01*
X147266695Y-137149927D01*
X147278986Y-137151306D01*
X147290798Y-137154962D01*
X147620887Y-137189656D01*
X147950755Y-137226656D01*
X147974500Y-137226822D01*
X147975377Y-137226914D01*
X147976255Y-137226834D01*
X148000000Y-137227000D01*
X151915892Y-137227000D01*
X152059911Y-137347846D01*
X152083077Y-137360581D01*
X152103502Y-137377359D01*
X152512756Y-137596799D01*
X152919654Y-137820493D01*
X152944847Y-137828485D01*
X152968147Y-137840978D01*
X153412241Y-137976751D01*
X153854828Y-138117148D01*
X153881097Y-138120095D01*
X153906376Y-138127823D01*
X154368330Y-138174746D01*
X154829812Y-138226510D01*
X154881485Y-138226871D01*
X154882452Y-138226969D01*
X154883353Y-138226884D01*
X154900000Y-138227000D01*
X155097394Y-138227000D01*
X160994211Y-144123817D01*
X160592542Y-144121012D01*
X160047959Y-144224897D01*
X159533925Y-144432580D01*
X159070020Y-144736151D01*
X158673914Y-145124047D01*
X158360694Y-145581492D01*
X158142291Y-146091064D01*
X158027024Y-146633353D01*
X158019284Y-147187702D01*
X158119364Y-147732997D01*
X158323454Y-148248468D01*
X158623778Y-148714481D01*
X159008899Y-149113286D01*
X159464147Y-149429691D01*
X159972182Y-149651646D01*
X160513652Y-149770696D01*
X161067934Y-149782307D01*
X161613915Y-149686036D01*
X162130798Y-149485550D01*
X162598897Y-149188486D01*
X163000380Y-148806158D01*
X163319956Y-148353130D01*
X163348944Y-148288021D01*
X163623778Y-148714481D01*
X164008899Y-149113286D01*
X164464147Y-149429691D01*
X164972182Y-149651646D01*
X165513652Y-149770696D01*
X166067934Y-149782307D01*
X166523000Y-149702067D01*
X166523000Y-155673000D01*
X157377000Y-155673000D01*
X157377000Y-150900000D01*
X157371972Y-150864619D01*
X157357286Y-150832039D01*
X157339803Y-150810197D01*
X151439803Y-144910197D01*
X151411229Y-144888734D01*
X151377807Y-144876082D01*
X151350000Y-144873000D01*
X142377000Y-144873000D01*
X142377000Y-136827000D01*
X146401764Y-136827000D01*
X146610567Y-136941790D01*
M02*
