M48
;DRILL file {KiCad 4.0.7-e2-6376~58~ubuntu16.04.1} date Wed Aug 15 08:29:53 2018
;FORMAT={-:-/ absolute / metric / decimal}
FMAT,2
METRIC,TZ
T1C0.400
T2C0.800
T3C0.900
T4C1.000
T5C1.050
T6C1.100
T7C1.200
T8C1.300
T9C2.000
T10C5.600
%
G90
G05
M71
T1
X87.9Y-95.5
X87.9Y-96.85
X89.25Y-95.5
X89.25Y-96.85
X90.6Y-95.5
X90.6Y-96.85
X91.95Y-95.5
X91.95Y-96.85
X93.3Y-95.5
X93.3Y-96.85
T2
X46.1Y-49.7
X46.1Y-59.86
X46.1Y-101.75
X46.1Y-111.91
X50.1Y-54.6
X50.1Y-59.6
X50.1Y-102.05
X50.1Y-107.05
X54.7Y-54.6
X54.7Y-59.6
X54.7Y-102.05
X54.7Y-107.05
X66.Y-90.55
X66.Y-100.71
X80.95Y-146.95
X85.95Y-146.95
X98.8Y-133.7
X103.8Y-133.7
X111.05Y-98.36
X111.05Y-113.6
X114.9Y-107.1
X116.9Y-107.1
X143.Y-133.7
X148.Y-133.7
X160.85Y-146.95
X165.85Y-146.95
X180.95Y-88.6
X180.95Y-98.76
X192.1Y-54.6
X192.1Y-59.6
X192.1Y-102.05
X192.1Y-107.05
X196.7Y-54.6
X196.7Y-59.6
X196.7Y-102.05
X196.7Y-107.05
X200.7Y-49.7
X200.7Y-59.86
X200.7Y-101.75
X200.7Y-111.91
T3
X67.6Y-103.96
X67.6Y-106.5
T4
X60.65Y-55.1
X60.65Y-65.1
X60.65Y-68.9
X60.65Y-78.9
X60.65Y-82.7
X60.65Y-92.7
X60.65Y-96.55
X60.65Y-106.55
X76.1Y-61.25
X76.1Y-68.75
X82.7Y-50.55
X90.2Y-50.55
X107.45Y-90.25
X112.3Y-135.3
X114.95Y-90.25
X115.85Y-66.05
X115.85Y-73.55
X118.3Y-147.
X118.85Y-97.9
X121.45Y-87.9
X122.3Y-135.3
X128.3Y-147.
X130.95Y-66.05
X130.95Y-73.55
X131.85Y-90.25
X139.35Y-90.25
X156.6Y-50.55
X164.1Y-50.55
X170.7Y-61.25
X170.7Y-68.75
X186.15Y-55.1
X186.15Y-65.1
X186.15Y-68.9
X186.15Y-78.9
X186.15Y-82.7
X186.15Y-92.7
X186.15Y-96.55
X186.15Y-106.55
T5
X179.75Y-102.95
X179.75Y-105.45
T6
X114.35Y-111.8
X114.35Y-115.3
X124.51Y-111.8
X124.51Y-115.3
T7
X48.9Y-115.05
X48.9Y-145.53
X78.15Y-89.45
X78.15Y-119.93
X86.975Y-61.275
X87.Y-20.
X87.Y-50.48
X93.675Y-79.375
X105.075Y-61.275
X105.075Y-79.375
X108.25Y-118.15
X108.25Y-128.1
X108.25Y-138.15
X118.4Y-20.
X118.4Y-50.48
X128.4Y-20.
X128.4Y-50.48
X138.73Y-118.15
X138.73Y-128.1
X138.73Y-138.15
X141.725Y-61.275
X141.725Y-79.375
X159.8Y-20.
X159.8Y-50.48
X159.825Y-61.275
X159.825Y-72.675
X168.65Y-89.45
X168.65Y-119.93
X197.9Y-115.05
X197.9Y-145.53
T8
X51.55Y-64.975
X51.55Y-71.325
X51.55Y-77.675
X51.55Y-84.025
X51.55Y-90.375
X51.55Y-96.725
X55.425Y-153.8
X61.775Y-153.8
X68.125Y-153.8
X74.475Y-153.8
X81.475Y-153.8
X87.825Y-153.8
X94.175Y-153.8
X100.525Y-153.8
X107.525Y-153.8
X111.95Y-125.
X113.875Y-153.8
X113.9Y-119.05
X113.9Y-131.05
X120.225Y-153.8
X126.Y-83.95
X126.Y-89.05
X126.Y-94.15
X126.Y-99.25
X126.1Y-131.05
X126.575Y-153.8
X132.925Y-153.8
X139.275Y-153.8
X146.275Y-153.8
X152.625Y-153.8
X158.975Y-153.8
X165.325Y-153.8
X172.325Y-153.8
X178.675Y-153.8
X185.025Y-153.8
X191.375Y-153.8
X195.25Y-64.975
X195.25Y-71.325
X195.25Y-77.675
X195.25Y-84.025
X195.25Y-90.375
X195.25Y-96.725
T9
X61.75Y-125.25
X61.75Y-135.25
X67.95Y-30.05
X67.95Y-40.05
X90.6Y-100.1
X90.6Y-110.1
X105.2Y-30.05
X105.2Y-40.05
X141.6Y-30.
X141.6Y-40.
X156.2Y-100.1
X156.2Y-110.1
X178.85Y-30.05
X178.85Y-40.05
X185.05Y-125.25
X185.05Y-135.25
T10
X96.025Y-70.325
X150.775Y-70.325
T0
M30
